<?xml version="1.0" encoding="UTF-8" standalone="no"?>
<!-- Created with Inkscape (http://www.inkscape.org/) -->

<svg
   xmlns:dc="http://purl.org/dc/elements/1.1/"
   xmlns:cc="http://creativecommons.org/ns#"
   xmlns:rdf="http://www.w3.org/1999/02/22-rdf-syntax-ns#"
   xmlns:svg="http://www.w3.org/2000/svg"
   xmlns="http://www.w3.org/2000/svg"
   xmlns:sodipodi="http://sodipodi.sourceforge.net/DTD/sodipodi-0.dtd"
   xmlns:inkscape="http://www.inkscape.org/namespaces/inkscape"
   width="64"
   height="64"
   viewBox="0 0 16.933333 16.933334"
   version="1.1"
   id="svg8"
   inkscape:version="0.92.1 r15371"
   sodipodi:docname="cpufreq.svg"
   inkscape:export-filename="/home/kapa/projects/cpufreq-docs/assets/images/cpufreq.png"
   inkscape:export-xdpi="48"
   inkscape:export-ydpi="48">
  <defs
     id="defs2" />
  <sodipodi:namedview
     id="base"
     pagecolor="#ffffff"
     bordercolor="#666666"
     borderopacity="1.0"
     inkscape:pageopacity="0.0"
     inkscape:pageshadow="2"
     inkscape:zoom="2.4665874"
     inkscape:cx="130.3489"
     inkscape:cy="-57.718863"
     inkscape:document-units="px"
     inkscape:current-layer="layer1"
     showgrid="false"
     units="px"
     inkscape:showpageshadow="false"
     inkscape:window-width="754"
     inkscape:window-height="528"
     inkscape:window-x="759"
     inkscape:window-y="148"
     inkscape:window-maximized="0" />
  <metadata
     id="metadata5">
    <rdf:RDF>
      <cc:Work
         rdf:about="">
        <dc:format>image/svg+xml</dc:format>
        <dc:type
           rdf:resource="http://purl.org/dc/dcmitype/StillImage" />
        <dc:title />
      </cc:Work>
    </rdf:RDF>
  </metadata>
  <g
     inkscape:label="Layer 1"
     inkscape:groupmode="layer"
     id="layer1"
     transform="translate(0,-280.06665)">
    <rect
       style="fill:#916f6f;fill-opacity:0.0018225;stroke-width:0.2630671"
       id="rect4588"
       width="65.59375"
       height="18.557184"
       x="-0.75086874"
       y="279.30093"
       inkscape:export-xdpi="49.565697"
       inkscape:export-ydpi="49.565697" />
    <g
       id="g4499"
       transform="matrix(0.80059979,0,0,0.80059979,1.6882551,57.004436)">
      <path
         id="rect4502"
         d="m 2.201473,280.92558 h 12.530386 c 0.247924,0 0.447515,0.19959 0.447515,0.44751 v 0.89503 c 0,0.24793 -0.199591,0.44751 -0.447515,0.44751 H 2.201473 c -0.2479226,0 -0.4475138,-0.19958 -0.4475138,-0.44751 v -0.89503 c 0,-0.24792 0.1995912,-0.44751 0.4475138,-0.44751 z"
         style="opacity:1;fill:#ff0000;fill-opacity:1;fill-rule:nonzero;stroke:none;stroke-width:0.8950277;stroke-linecap:round;stroke-linejoin:round;stroke-miterlimit:4;stroke-dasharray:none;stroke-dashoffset:0;stroke-opacity:1"
         inkscape:connector-curvature="0" />
      <path
         id="rect4504"
         d="m 2.201473,283.16314 h 12.530386 c 0.247924,0 0.447515,0.19958 0.447515,0.44751 v 0.89503 c 0,0.24793 -0.199591,0.44751 -0.447515,0.44751 H 2.201473 c -0.2479226,0 -0.4475138,-0.19958 -0.4475138,-0.44751 v -0.89503 c 0,-0.24793 0.1995912,-0.44751 0.4475138,-0.44751 z"
         style="opacity:1;fill:#ff2a2a;fill-opacity:1;fill-rule:nonzero;stroke:none;stroke-width:0.8950277;stroke-linecap:round;stroke-linejoin:round;stroke-miterlimit:4;stroke-dasharray:none;stroke-dashoffset:0;stroke-opacity:1"
         inkscape:connector-curvature="0" />
      <path
         id="rect4506"
         d="m 2.201473,285.40073 h 12.530386 c 0.247924,0 0.447515,0.1996 0.447515,0.44753 v 0.89501 c 0,0.24793 -0.199591,0.44753 -0.447515,0.44753 H 2.201473 c -0.2479226,0 -0.4475138,-0.1996 -0.4475138,-0.44753 v -0.89501 c 0,-0.24793 0.1995912,-0.44753 0.4475138,-0.44753 z"
         style="opacity:1;fill:#ff5555;fill-opacity:1;fill-rule:nonzero;stroke:none;stroke-width:0.8950277;stroke-linecap:round;stroke-linejoin:round;stroke-miterlimit:4;stroke-dasharray:none;stroke-dashoffset:0;stroke-opacity:1"
         inkscape:connector-curvature="0" />
      <path
         id="rect4508"
         d="m 2.201473,287.63829 h 12.530386 c 0.247924,0 0.447515,0.19958 0.447515,0.44751 v 0.89503 c 0,0.24793 -0.199591,0.44751 -0.447515,0.44751 H 2.201473 c -0.2479226,0 -0.4475138,-0.19958 -0.4475138,-0.44751 v -0.89503 c 0,-0.24793 0.1995912,-0.44751 0.4475138,-0.44751 z"
         style="opacity:1;fill:#ff8080;fill-opacity:1;fill-rule:nonzero;stroke:none;stroke-width:0.8950277;stroke-linecap:round;stroke-linejoin:round;stroke-miterlimit:4;stroke-dasharray:none;stroke-dashoffset:0;stroke-opacity:1"
         inkscape:connector-curvature="0" />
      <path
         id="rect4510"
         d="m 2.201473,289.87585 h 12.530386 c 0.247924,0 0.447515,0.19958 0.447515,0.44751 v 0.89503 c 0,0.24792 -0.199591,0.44751 -0.447515,0.44751 H 2.201473 c -0.2479226,0 -0.4475138,-0.19959 -0.4475138,-0.44751 v -0.89503 c 0,-0.24793 0.1995912,-0.44751 0.4475138,-0.44751 z"
         style="opacity:1;fill:#ac9393;fill-opacity:1;fill-rule:nonzero;stroke:none;stroke-width:0.8950277;stroke-linecap:round;stroke-linejoin:round;stroke-miterlimit:4;stroke-dasharray:none;stroke-dashoffset:0;stroke-opacity:1"
         inkscape:connector-curvature="0" />
      <path
         id="rect4512"
         d="m 2.201473,292.11344 h 12.530386 c 0.247924,0 0.447515,0.1996 0.447515,0.44752 v 0.89502 c 0,0.24792 -0.199591,0.44753 -0.447515,0.44753 H 2.201473 c -0.2479226,0 -0.4475138,-0.19961 -0.4475138,-0.44753 v -0.89502 c 0,-0.24792 0.1995912,-0.44752 0.4475138,-0.44752 z"
         style="opacity:1;fill:#c8b7b7;fill-opacity:1;fill-rule:nonzero;stroke:none;stroke-width:0.8950277;stroke-linecap:round;stroke-linejoin:round;stroke-miterlimit:4;stroke-dasharray:none;stroke-dashoffset:0;stroke-opacity:1"
         inkscape:connector-curvature="0" />
      <path
         id="rect4514"
         d="m 2.201473,294.351 h 12.530386 c 0.247924,0 0.447515,0.19958 0.447515,0.44751 v 0.89503 c 0,0.24792 -0.199591,0.44751 -0.447515,0.44751 H 2.201473 c -0.2479226,0 -0.4475138,-0.19959 -0.4475138,-0.44751 v -0.89503 c 0,-0.24793 0.1995912,-0.44751 0.4475138,-0.44751 z"
         style="opacity:1;fill:#e3dbdb;fill-opacity:1;fill-rule:nonzero;stroke:none;stroke-width:0.8950277;stroke-linecap:round;stroke-linejoin:round;stroke-miterlimit:4;stroke-dasharray:none;stroke-dashoffset:0;stroke-opacity:1"
         inkscape:connector-curvature="0" />
    </g>
    <text
       xml:space="preserve"
       style="font-style:normal;font-weight:normal;font-size:13.52516365px;line-height:1.25;font-family:sans-serif;letter-spacing:0px;word-spacing:0px;fill:#000000;fill-opacity:1;stroke:none;stroke-width:0.33812904"
       x="20.958876"
       y="245.27025"
       id="text4586"
       transform="scale(0.83544928,1.1969608)"><tspan
         sodipodi:role="line"
         id="tspan4584"
         x="20.958876"
         y="245.27025"
         style="font-style:normal;font-variant:normal;font-weight:bold;font-stretch:normal;font-size:12.62348557px;font-family:Roboto;-inkscape-font-specification:'Roboto Bold';fill:#916f6f;stroke-width:0.33812904">CPUFREQ</tspan></text>
  </g>
</svg>
