<?xml version="1.0" encoding="UTF-8" standalone="no"?>
<!-- Created with Inkscape (http://www.inkscape.org/) -->

<svg
   xmlns:dc="http://purl.org/dc/elements/1.1/"
   xmlns:cc="http://creativecommons.org/ns#"
   xmlns:rdf="http://www.w3.org/1999/02/22-rdf-syntax-ns#"
   xmlns:svg="http://www.w3.org/2000/svg"
   xmlns="http://www.w3.org/2000/svg"
   xmlns:xlink="http://www.w3.org/1999/xlink"
   xmlns:sodipodi="http://sodipodi.sourceforge.net/DTD/sodipodi-0.dtd"
   xmlns:inkscape="http://www.inkscape.org/namespaces/inkscape"
   width="512"
   height="512"
   viewBox="0 0 135.46667 135.46667"
   version="1.1"
   id="svg8"
   inkscape:version="0.92.1 r15371"
   sodipodi:docname="splash.svg"
   inkscape:export-filename="/home/kapa/projects/cpufreq@konkor/data/splash.png"
   inkscape:export-xdpi="96"
   inkscape:export-ydpi="96">
  <defs
     id="defs2">
    <linearGradient
       inkscape:collect="always"
       id="linearGradient5071">
      <stop
         style="stop-color:#333333;stop-opacity:1;"
         offset="0"
         id="stop5067" />
      <stop
         style="stop-color:#333333;stop-opacity:0;"
         offset="1"
         id="stop5069" />
    </linearGradient>
    <linearGradient
       id="linearGradient4956"
       inkscape:collect="always">
      <stop
         id="stop4950"
         offset="0"
         style="stop-color:#252525;stop-opacity:1" />
      <stop
         style="stop-color:#141718;stop-opacity:1"
         offset="0.53205132"
         id="stop4952" />
      <stop
         id="stop4954"
         offset="1"
         style="stop-color:#383838;stop-opacity:1" />
    </linearGradient>
    <linearGradient
       inkscape:collect="always"
       id="linearGradient4961">
      <stop
         style="stop-color:#aaaaaa;stop-opacity:1;"
         offset="0"
         id="stop4957" />
      <stop
         style="stop-color:#aaaaaa;stop-opacity:0;"
         offset="1"
         id="stop4959" />
    </linearGradient>
    <linearGradient
       inkscape:collect="always"
       id="linearGradient4555">
      <stop
         style="stop-color:#888888;stop-opacity:1"
         offset="0"
         id="stop4549" />
      <stop
         id="stop4551"
         offset="0.53205132"
         style="stop-color:#e8eaeb;stop-opacity:0.99607843" />
      <stop
         style="stop-color:#888888;stop-opacity:1"
         offset="1"
         id="stop4553" />
    </linearGradient>
    <linearGradient
       inkscape:collect="always"
       xlink:href="#linearGradient4956"
       id="linearGradient4547"
       x1="-82.587807"
       y1="241.53201"
       x2="11.339279"
       y2="241.53201"
       gradientUnits="userSpaceOnUse"
       gradientTransform="matrix(5.4510371,0,0,4.8699053,450.18919,-911.41352)" />
    <linearGradient
       inkscape:collect="always"
       xlink:href="#linearGradient4961"
       id="linearGradient4965"
       x1="-51.05695"
       y1="236.61119"
       x2="28.972395"
       y2="236.61119"
       gradientUnits="userSpaceOnUse" />
    <mask
       maskUnits="userSpaceOnUse"
       id="mask4788">
      <path
         sodipodi:nodetypes="csccc"
         inkscape:connector-curvature="0"
         id="path4790"
         d="m 37.27571,256.44741 c 0,0 90.20479,-0.0353 90.22068,0.44816 0.0289,0.87922 -95.392567,2.86818 -95.392567,2.86818 0,0 10.691294,-0.59885 10.70325,-2.01043 -0.0118,-0.48428 -5.531363,-1.30591 -5.531363,-1.30591 z"
         style="fill:#684cef;fill-opacity:1;fill-rule:evenodd;stroke:none;stroke-width:0.3669771;stroke-linecap:round;stroke-linejoin:round;stroke-miterlimit:4;stroke-dasharray:none;stroke-opacity:1" />
    </mask>
    <linearGradient
       inkscape:collect="always"
       xlink:href="#linearGradient4555"
       id="linearGradient5064"
       x1="58.463352"
       y1="247.3481"
       x2="123.46935"
       y2="247.20432"
       gradientUnits="userSpaceOnUse"
       gradientTransform="matrix(3.7795275,0,0,3.7795275,0,-610.51973)" />
    <linearGradient
       inkscape:collect="always"
       xlink:href="#linearGradient5071"
       id="linearGradient5073"
       x1="45.586178"
       y1="247.3481"
       x2="56.371591"
       y2="247.3481"
       gradientUnits="userSpaceOnUse" />
    <linearGradient
       inkscape:collect="always"
       xlink:href="#linearGradient5071"
       id="linearGradient5075"
       x1="31.959417"
       y1="247.3481"
       x2="43.807672"
       y2="247.3481"
       gradientUnits="userSpaceOnUse" />
    <linearGradient
       id="linearGradient3483">
      <stop
         id="stop3485"
         offset="0"
         style="stop-color:#c4282d;stop-opacity:1;" />
      <stop
         id="stop3487"
         offset="1"
         style="stop-color:#7f1a1d;stop-opacity:1;" />
    </linearGradient>
  </defs>
  <sodipodi:namedview
     id="base"
     pagecolor="#ffffff"
     bordercolor="#666666"
     borderopacity="1.0"
     inkscape:pageopacity="0.0"
     inkscape:pageshadow="2"
     inkscape:zoom="1.765625"
     inkscape:cx="199.06979"
     inkscape:cy="211.74771"
     inkscape:document-units="px"
     inkscape:current-layer="layer1"
     showgrid="false"
     units="px"
     inkscape:window-width="1920"
     inkscape:window-height="1173"
     inkscape:window-x="0"
     inkscape:window-y="27"
     inkscape:window-maximized="1"
     inkscape:pagecheckerboard="true"
     inkscape:snap-intersection-paths="true"
     inkscape:object-paths="true"
     showguides="true"
     inkscape:guide-bbox="true">
    <sodipodi:guide
       position="-40.901227,30.411016"
       orientation="0,1"
       id="guide4640"
       inkscape:locked="false" />
    <sodipodi:guide
       position="127.68388,83.497841"
       orientation="1,0"
       id="guide4642"
       inkscape:locked="false" />
  </sodipodi:namedview>
  <metadata
     id="metadata5">
    <rdf:RDF>
      <cc:Work
         rdf:about="">
        <dc:format>image/svg+xml</dc:format>
        <dc:type
           rdf:resource="http://purl.org/dc/dcmitype/StillImage" />
        <dc:title />
      </cc:Work>
    </rdf:RDF>
  </metadata>
  <g
     inkscape:label="Layer 1"
     inkscape:groupmode="layer"
     id="layer1"
     transform="translate(0,-161.53335)">
    <path
       style="opacity:1;fill:url(#linearGradient4547);fill-opacity:1;fill-rule:nonzero;stroke:none;stroke-width:27.2641716;stroke-linecap:round;stroke-linejoin:round;stroke-miterlimit:4;stroke-dasharray:none;stroke-dashoffset:0;stroke-opacity:0.8786885"
       d="M 0 108.82422 L 0 115.6875 L 0 352.13281 L 0 413.95898 C -5.9211895e-16 417.76176 3.0604878 420.82422 6.8632812 420.82422 L 505.13672 420.82422 C 508.93949 420.82422 512 417.76176 512 413.95898 L 512 115.6875 C 512 111.88473 508.93949 108.82422 505.13672 108.82422 L 399.27734 108.82422 L 6.8632812 108.82422 L 0 108.82422 z "
       transform="matrix(0.26458334,0,0,0.26458334,0,161.53335)"
       id="rect4535" />
    <g
       aria-label="OSPOWER"
       transform="scale(1.1809945,0.846744)"
       style="font-style:normal;font-variant:normal;font-weight:bold;font-stretch:normal;font-size:19.62578392px;line-height:2.5554409px;font-family:'Roboto Condensed';-inkscape-font-specification:'Roboto Condensed, Bold';letter-spacing:0px;word-spacing:0px;fill:#717171;fill-opacity:0.51746036;stroke:none;stroke-width:0.63499999;stroke-linecap:butt;stroke-linejoin:miter;stroke-miterlimit:4;stroke-dasharray:none;stroke-opacity:0.59682498"
       id="text4567">
      <path
         d="m 36.838667,293.73372 q 0,2.80779 -1.332023,4.36022 -1.322441,1.55243 -3.679835,1.55243 -2.347811,0 -3.689417,-1.53326 -1.341606,-1.54285 -1.360772,-4.31231 v -2.38614 q 0,-2.87487 1.332023,-4.4848 1.332024,-1.61951 3.699001,-1.61951 2.328645,0 3.670251,1.59076 1.341606,1.58118 1.360772,4.44647 z m -2.826956,-2.33823 q 0,-1.88783 -0.536642,-2.80779 -0.536643,-0.91996 -1.667425,-0.91996 -1.1212,0 -1.657843,0.89121 -0.536642,0.88163 -0.555808,2.6928 v 2.48197 q 0,1.83033 0.546226,2.70238 0.546225,0.86246 1.68659,0.86246 1.102034,0 1.638677,-0.8433 0.536642,-0.85287 0.546225,-2.63529 z"
         style="font-style:normal;font-variant:normal;font-weight:bold;font-stretch:normal;font-family:'Roboto Condensed';-inkscape-font-specification:'Roboto Condensed, Bold';fill:#717171;fill-opacity:0.51746036;stroke:none;stroke-width:0.63499999;stroke-miterlimit:4;stroke-dasharray:none;stroke-opacity:0.59682498"
         id="path5445" />
      <path
         d="m 44.754144,295.79404 q 0,-0.85288 -0.440813,-1.28411 -0.431231,-0.44081 -1.581179,-0.91037 -2.098656,-0.79538 -3.018614,-1.85908 -0.919959,-1.07329 -0.919959,-2.52989 0,-1.76325 1.245778,-2.82696 1.25536,-1.07328 3.181523,-1.07328 1.284109,0 2.290314,0.54622 1.006205,0.53665 1.542847,1.52369 0.546225,0.98703 0.546225,2.24239 h -2.80779 q 0,-0.97745 -0.421648,-1.48535 -0.412064,-0.51747 -1.197862,-0.51747 -0.737884,0 -1.149949,0.44081 -0.412064,0.43123 -0.412064,1.16912 0,0.57497 0.459979,1.04453 0.459979,0.45998 1.629093,0.95829 2.041158,0.73789 2.961117,1.81117 0.929542,1.07329 0.929542,2.73113 0,1.82075 -1.159532,2.84612 -1.159531,1.02537 -3.152774,1.02537 -1.35119,0 -2.462806,-0.55581 -1.111617,-0.55581 -1.744089,-1.59076 -0.622888,-1.03495 -0.622888,-2.44364 h 2.826956 q 0,1.20745 0.469562,1.75367 0.469562,0.54623 1.533265,0.54623 1.475766,0 1.475766,-1.56202 z"
         style="font-style:normal;font-variant:normal;font-weight:bold;font-stretch:normal;font-family:'Roboto Condensed';-inkscape-font-specification:'Roboto Condensed, Bold';fill:#717171;fill-opacity:0.51746036;stroke:none;stroke-width:0.63499999;stroke-miterlimit:4;stroke-dasharray:none;stroke-opacity:0.59682498"
         id="path5447" />
      <path
         d="m 52.295888,294.54827 v 4.90644 h -2.817373 v -13.9527 h 4.753119 q 2.069907,0 3.296519,1.28411 1.236194,1.2841 1.236194,3.33485 0,2.05074 -1.217029,3.23902 -1.217028,1.18828 -3.373181,1.18828 z m 0,-2.34782 h 1.935746 q 0.804964,0 1.245777,-0.52705 0.440814,-0.52706 0.440814,-1.53327 0,-1.04454 -0.450396,-1.65784 -0.450397,-0.62289 -1.207446,-0.63247 h -1.964495 z"
         style="fill:#717171;fill-opacity:0.51746036;stroke:none;stroke-width:0.63499999;stroke-miterlimit:4;stroke-dasharray:none;stroke-opacity:0.59682498"
         id="path5449" />
      <path
         d="m 70.455489,293.73372 q 0,2.80779 -1.332024,4.36022 -1.32244,1.55243 -3.679834,1.55243 -2.347811,0 -3.689418,-1.53326 -1.341606,-1.54285 -1.360772,-4.31231 v -2.38614 q 0,-2.87487 1.332024,-4.4848 1.332023,-1.61951 3.699,-1.61951 2.328645,0 3.670251,1.59076 1.341607,1.58118 1.360773,4.44647 z m -2.826957,-2.33823 q 0,-1.88783 -0.536642,-2.80779 -0.536643,-0.91996 -1.667425,-0.91996 -1.1212,0 -1.657842,0.89121 -0.536643,0.88163 -0.555809,2.6928 v 2.48197 q 0,1.83033 0.546226,2.70238 0.546225,0.86246 1.686591,0.86246 1.102033,0 1.638676,-0.8433 0.536642,-0.85287 0.546225,-2.63529 z"
         style="fill:#717171;fill-opacity:0.51746036;stroke:none;stroke-width:0.63499999;stroke-miterlimit:4;stroke-dasharray:none;stroke-opacity:0.59682498"
         id="path5451" />
      <path
         d="m 81.542906,294.27036 1.322441,-8.76835 h 2.788625 L 83.172,299.45471 h -2.826956 l -1.629094,-8.22213 -1.609927,8.22213 h -2.836539 l -2.491555,-13.9527 h 2.80779 l 1.312858,8.75877 1.638676,-8.75877 h 2.366977 z"
         style="fill:#717171;fill-opacity:0.51746036;stroke:none;stroke-width:0.63499999;stroke-miterlimit:4;stroke-dasharray:none;stroke-opacity:0.59682498"
         id="path5453" />
      <path
         d="m 94.403161,293.41748 h -4.388969 v 3.699 h 5.193933 v 2.33823 h -8.011307 v -13.9527 h 7.992141 v 2.34781 h -5.174767 v 3.29652 h 4.388969 z"
         style="fill:#717171;fill-opacity:0.51746036;stroke:none;stroke-width:0.63499999;stroke-miterlimit:4;stroke-dasharray:none;stroke-opacity:0.59682498"
         id="path5455" />
      <path
         d="m 101.04411,294.35661 h -1.399104 v 5.0981 h -2.817374 v -13.9527 h 4.494378 q 2.11782,0 3.26777,1.10203 1.15953,1.09245 1.15953,3.11444 0,2.77904 -2.02199,3.89066 l 2.44364,5.71141 v 0.13416 h -3.0282 z m -1.399104,-2.34781 h 1.600344 q 0.8433,0 1.26494,-0.55581 0.42165,-0.56539 0.42165,-1.50452 0,-2.09865 -1.63868,-2.09865 h -1.648254 z"
         style="fill:#717171;fill-opacity:0.51746036;stroke:none;stroke-width:0.63499999;stroke-miterlimit:4;stroke-dasharray:none;stroke-opacity:0.59682498"
         id="path5457" />
    </g>
    <path
       inkscape:connector-curvature="0"
       id="path5028"
       style="font-style:normal;font-variant:normal;font-weight:bold;font-stretch:normal;font-size:medium;line-height:2.526191px;font-family:'Roboto Condensed';-inkscape-font-specification:'Roboto Condensed, Bold';letter-spacing:0px;word-spacing:0px;fill:url(#linearGradient5075);fill-opacity:1;stroke:#aaaaaa;stroke-width:0.10104768px;stroke-linecap:butt;stroke-linejoin:miter;stroke-opacity:0.90158733"
       d="m 43.757148,248.3989 q 0,2.35027 -1.555107,3.64974 -1.543919,1.29946 -4.296121,1.29946 -2.741015,0 -4.307309,-1.28343 -1.566295,-1.29143 -1.58867,-3.60962 v -1.99732 q 0,-2.40642 1.555106,-3.75402 1.555106,-1.35561 4.318498,-1.35561 2.718638,0 4.284934,1.33155 1.566294,1.32353 1.588669,3.72192 z m -3.300406,-1.95722 q 0,-1.58021 -0.626518,-2.35026 -0.626518,-0.77006 -1.946679,-0.77006 -1.308976,0 -1.935493,0.74599 -0.626518,0.73797 -0.648893,2.25401 v 2.07754 q 0,1.53209 0.637705,2.26203 0.637705,0.72193 1.969056,0.72193 1.286599,0 1.913116,-0.70588 0.626518,-0.71391 0.637706,-2.20589 z" />
    <path
       inkscape:connector-curvature="0"
       id="path5030"
       style="font-style:normal;font-variant:normal;font-weight:bold;font-stretch:normal;font-size:medium;line-height:2.526191px;font-family:'Roboto Condensed';-inkscape-font-specification:'Roboto Condensed, Bold';letter-spacing:0px;word-spacing:0px;fill:url(#linearGradient5073);fill-opacity:1;stroke:#aaaaaa;stroke-width:0.10104768px;stroke-linecap:butt;stroke-linejoin:miter;stroke-opacity:0.90158733"
       d="m 52.998284,250.1235 q 0,-0.7139 -0.514639,-1.07487 -0.503451,-0.36898 -1.84599,-0.76203 -2.450132,-0.66578 -3.524162,-1.55614 -1.074031,-0.89841 -1.074031,-2.11765 0,-1.47594 1.454417,-2.36631 1.465604,-0.8984 3.714355,-0.8984 1.499168,0 2.673888,0.45722 1.174721,0.4492 1.801238,1.2754 0.637707,0.8262 0.637707,1.877 h -3.278031 q 0,-0.81817 -0.492264,-1.24331 -0.481076,-0.43316 -1.398478,-0.43316 -0.861461,0 -1.342538,0.36899 -0.481075,0.36096 -0.481075,0.97861 0,0.48129 0.537015,0.87433 0.537015,0.38503 1.901928,0.80213 2.383006,0.61765 3.457036,1.51605 1.085218,0.89839 1.085218,2.2861 0,1.52406 -1.353726,2.38235 -1.353725,0.85829 -3.680791,0.85829 -1.577483,0 -2.875269,-0.46524 -1.297787,-0.46524 -2.036182,-1.33155 -0.727208,-0.86631 -0.727208,-2.04546 h 3.300406 q 0,1.0107 0.548202,1.46792 0.548203,0.45722 1.790051,0.45722 1.722923,0 1.722923,-1.30749 z" />
    <path
       style="font-style:normal;font-variant:normal;font-weight:bold;font-stretch:normal;font-size:medium;line-height:2.526191px;font-family:'Roboto Condensed';-inkscape-font-specification:'Roboto Condensed, Bold';letter-spacing:0px;word-spacing:0px;fill:url(#linearGradient5064);fill-opacity:1;stroke:#aaaaaa;stroke-width:0.38191247px;stroke-linecap:butt;stroke-linejoin:miter;stroke-opacity:0.90158733"
       d="M 291.51562 301.66211 C 284.55275 301.66211 279.11369 303.36945 275.19531 306.78516 C 271.27694 310.18068 269.31641 314.91119 269.31641 320.97461 L 269.31641 328.52344 C 269.37278 334.36455 271.3757 338.91202 275.32227 342.16602 C 279.26883 345.39985 284.69507 347.01563 291.60156 347.01562 C 298.53625 347.01562 303.94771 345.3797 307.83789 342.10547 C 311.75627 338.83121 313.7168 334.23249 313.7168 328.31055 L 313.7168 320.76172 C 313.66042 314.71853 311.6575 310.03019 307.71094 306.69531 C 303.76437 303.34023 298.36574 301.66211 291.51562 301.66211 z M 221.1543 302.26758 L 221.1543 346.41016 L 233.58594 346.41016 L 233.58594 330.88672 L 241.875 330.88672 C 248.2177 330.88672 253.17771 329.63511 256.75781 327.12891 C 260.33792 324.62268 262.12891 321.20608 262.12891 316.88086 C 262.12891 312.55562 260.31031 309.03841 256.67383 306.33008 C 253.06554 303.62177 248.2179 302.26758 242.12891 302.26758 L 221.1543 302.26758 z M 319.55078 302.26758 L 330.54492 346.41016 L 343.06055 346.41016 L 350.16602 320.39844 L 357.35352 346.41016 L 369.82812 346.41016 L 380.7793 302.26758 L 368.47461 302.26758 L 362.63867 330.00781 L 355.4082 302.26758 L 344.96484 302.26758 L 337.73438 329.97852 L 331.94141 302.26758 L 319.55078 302.26758 z M 387.58789 302.26758 L 387.58789 346.41016 L 422.9375 346.41016 L 422.9375 339.01172 L 400.01953 339.01172 L 400.01953 327.31055 L 419.38477 327.31055 L 419.38477 320.125 L 400.01953 320.125 L 400.01953 309.69531 L 422.85352 309.69531 L 422.85352 302.26758 L 387.58789 302.26758 z M 430.08398 302.26758 L 430.08398 346.41016 L 442.51562 346.41016 L 442.51562 330.28125 L 448.68945 330.28125 L 457.94922 346.41016 L 471.31055 346.41016 L 471.31055 345.98633 L 460.52734 327.91602 C 466.47539 325.5715 469.45117 321.46871 469.45117 315.60742 C 469.45117 311.34283 467.74496 308.05801 464.33398 305.75391 C 460.95121 303.4296 456.14401 302.26758 449.91406 302.26758 L 430.08398 302.26758 z M 291.51562 309.11914 C 294.84202 309.11914 297.29442 310.09094 298.87305 312.03125 C 300.45167 313.97153 301.24219 316.93243 301.24219 320.91406 L 301.24219 328.58398 C 301.21399 332.3433 300.41066 335.12109 298.83203 336.91992 C 297.2534 338.69852 294.84339 339.58789 291.60156 339.58789 C 288.24698 339.58789 285.76502 338.67841 284.1582 336.85938 C 282.55139 335.02016 281.74805 332.17093 281.74805 328.31055 L 281.74805 320.45898 C 281.80442 316.63904 282.62254 313.79891 284.20117 311.93945 C 285.7798 310.05979 288.21742 309.11914 291.51562 309.11914 z M 233.58594 309.69531 L 242.25391 309.69531 C 244.4809 309.71552 246.25711 310.38353 247.58203 311.69727 C 248.90695 312.9908 249.57031 314.73837 249.57031 316.94141 C 249.57031 319.06361 248.92173 320.68136 247.625 321.79297 C 246.32827 322.9046 244.49685 323.46094 242.12891 323.46094 L 233.58594 323.46094 L 233.58594 309.69531 z M 442.51562 309.69531 L 449.78711 309.69531 C 454.60754 309.69531 457.01953 311.90966 457.01953 316.33594 C 457.01953 318.31666 456.39854 319.90324 455.1582 321.0957 C 453.91786 322.26799 452.05688 322.85352 449.57617 322.85352 L 442.51562 322.85352 L 442.51562 309.69531 z "
       transform="matrix(0.26458334,0,0,0.26458334,0,161.53335)"
       id="path5032" />
    <rect
       style="opacity:0.81499999;fill:#4c8def;fill-opacity:1;fill-rule:nonzero;stroke:#333333;stroke-width:0.55907112;stroke-linecap:round;stroke-linejoin:round;stroke-miterlimit:4;stroke-dasharray:none;stroke-dashoffset:0;stroke-opacity:1"
       id="rect4743"
       width="4.472569"
       height="4.472569"
       x="196.26453"
       y="-25.114265"
       rx="0.55907112"
       transform="rotate(90)" />
    <rect
       rx="0.55907112"
       y="-25.114265"
       x="201.29617"
       height="4.472569"
       width="4.472569"
       id="rect4745"
       style="opacity:0.81499999;fill:#333333;fill-opacity:1;fill-rule:nonzero;stroke:#aaaaaa;stroke-width:0.55907112;stroke-linecap:round;stroke-linejoin:round;stroke-miterlimit:4;stroke-dasharray:none;stroke-dashoffset:0;stroke-opacity:0.6"
       transform="rotate(90)" />
    <rect
       rx="0.55907112"
       y="-20.082638"
       x="196.26453"
       height="4.472569"
       width="4.472569"
       id="rect4749"
       style="opacity:0.81499999;fill:#333333;fill-opacity:1;fill-rule:nonzero;stroke:#aaaaaa;stroke-width:0.55907112;stroke-linecap:round;stroke-linejoin:round;stroke-miterlimit:4;stroke-dasharray:none;stroke-dashoffset:0;stroke-opacity:0.6"
       transform="rotate(90)" />
    <rect
       style="opacity:0.81499999;fill:#4c8def;fill-opacity:1;fill-rule:nonzero;stroke:#333333;stroke-width:0.55907112;stroke-linecap:round;stroke-linejoin:round;stroke-miterlimit:4;stroke-dasharray:none;stroke-dashoffset:0;stroke-opacity:1"
       id="rect4755"
       width="4.472569"
       height="4.472569"
       x="196.26453"
       y="-15.051011"
       rx="0.55907112"
       transform="rotate(90)" />
    <rect
       rx="0.55907112"
       y="-15.051011"
       x="201.29617"
       height="4.472569"
       width="4.472569"
       id="rect4757"
       style="opacity:0.81499999;fill:#333333;fill-opacity:1;fill-rule:nonzero;stroke:#aaaaaa;stroke-width:0.55907112;stroke-linecap:round;stroke-linejoin:round;stroke-miterlimit:4;stroke-dasharray:none;stroke-dashoffset:0;stroke-opacity:0.6"
       transform="rotate(90)" />
    <rect
       style="opacity:0.81499999;fill:#4c8def;fill-opacity:1;fill-rule:nonzero;stroke:#333333;stroke-width:0.55907112;stroke-linecap:round;stroke-linejoin:round;stroke-miterlimit:4;stroke-dasharray:none;stroke-dashoffset:0;stroke-opacity:1"
       id="rect4759"
       width="4.472569"
       height="4.472569"
       x="206.32782"
       y="-25.114265"
       rx="0.55907112"
       transform="rotate(90)" />
    <rect
       rx="0.55907112"
       y="-25.114265"
       x="211.35945"
       height="4.472569"
       width="4.472569"
       id="rect4761"
       style="opacity:0.81499999;fill:#4c8def;fill-opacity:1;fill-rule:nonzero;stroke:#333333;stroke-width:0.55907112;stroke-linecap:round;stroke-linejoin:round;stroke-miterlimit:4;stroke-dasharray:none;stroke-dashoffset:0;stroke-opacity:1"
       transform="rotate(90)" />
    <rect
       style="opacity:0.81499999;fill:#4c8def;fill-opacity:1;fill-rule:nonzero;stroke:#333333;stroke-width:0.55907112;stroke-linecap:round;stroke-linejoin:round;stroke-miterlimit:4;stroke-dasharray:none;stroke-dashoffset:0;stroke-opacity:1"
       id="rect4763"
       width="4.472569"
       height="4.472569"
       x="216.3911"
       y="-25.114265"
       rx="0.55907112"
       transform="rotate(90)" />
    <rect
       rx="0.55907112"
       y="-20.082638"
       x="206.32782"
       height="4.472569"
       width="4.472569"
       id="rect4765"
       style="opacity:0.81499999;fill:#333333;fill-opacity:1;fill-rule:nonzero;stroke:#aaaaaa;stroke-width:0.55907112;stroke-linecap:round;stroke-linejoin:round;stroke-miterlimit:4;stroke-dasharray:none;stroke-dashoffset:0;stroke-opacity:0.6"
       transform="rotate(90)" />
    <rect
       style="opacity:0.81499999;fill:#4c8def;fill-opacity:1;fill-rule:nonzero;stroke:#333333;stroke-width:0.55907112;stroke-linecap:round;stroke-linejoin:round;stroke-miterlimit:4;stroke-dasharray:none;stroke-dashoffset:0;stroke-opacity:1"
       id="rect4767"
       width="4.472569"
       height="4.472569"
       x="211.35945"
       y="-20.082638"
       rx="0.55907112"
       transform="rotate(90)" />
    <rect
       rx="0.55907112"
       y="-20.082638"
       x="216.3911"
       height="4.472569"
       width="4.472569"
       id="rect4769"
       style="opacity:0.81499999;fill:#333333;fill-opacity:1;fill-rule:nonzero;stroke:#aaaaaa;stroke-width:0.55907112;stroke-linecap:round;stroke-linejoin:round;stroke-miterlimit:4;stroke-dasharray:none;stroke-dashoffset:0;stroke-opacity:0.6"
       transform="rotate(90)" />
    <rect
       style="opacity:0.81499999;fill:#4c8def;fill-opacity:1;fill-rule:nonzero;stroke:#333333;stroke-width:0.55907112;stroke-linecap:round;stroke-linejoin:round;stroke-miterlimit:4;stroke-dasharray:none;stroke-dashoffset:0;stroke-opacity:1"
       id="rect4771"
       width="4.472569"
       height="4.472569"
       x="206.32782"
       y="-15.051011"
       rx="0.55907112"
       transform="rotate(90)" />
    <rect
       rx="0.55907112"
       y="-15.051011"
       x="211.35945"
       height="4.472569"
       width="4.472569"
       id="rect4773"
       style="opacity:0.81499999;fill:#333333;fill-opacity:1;fill-rule:nonzero;stroke:#aaaaaa;stroke-width:0.55907112;stroke-linecap:round;stroke-linejoin:round;stroke-miterlimit:4;stroke-dasharray:none;stroke-dashoffset:0;stroke-opacity:0.6"
       transform="rotate(90)" />
    <rect
       style="opacity:0.81499999;fill:#4c8def;fill-opacity:1;fill-rule:nonzero;stroke:#333333;stroke-width:0.55907112;stroke-linecap:round;stroke-linejoin:round;stroke-miterlimit:4;stroke-dasharray:none;stroke-dashoffset:0;stroke-opacity:1"
       id="rect4775"
       width="4.472569"
       height="4.472569"
       x="216.3911"
       y="-15.051011"
       rx="0.55907112"
       transform="rotate(90)" />
    <rect
       rx="0.55907112"
       y="-25.114265"
       x="221.42273"
       height="4.472569"
       width="4.472569"
       id="rect4777"
       style="opacity:0.81499999;fill:#4c8def;fill-opacity:1;fill-rule:nonzero;stroke:#333333;stroke-width:0.55907112;stroke-linecap:round;stroke-linejoin:round;stroke-miterlimit:4;stroke-dasharray:none;stroke-dashoffset:0;stroke-opacity:1"
       transform="rotate(90)" />
    <rect
       style="opacity:0.81499999;fill:#4c8def;fill-opacity:1;fill-rule:nonzero;stroke:#333333;stroke-width:0.55907112;stroke-linecap:round;stroke-linejoin:round;stroke-miterlimit:4;stroke-dasharray:none;stroke-dashoffset:0;stroke-opacity:1"
       id="rect4779"
       width="4.472569"
       height="4.472569"
       x="226.45438"
       y="-25.114265"
       rx="0.55907112"
       transform="rotate(90)" />
    <rect
       rx="0.55907112"
       y="-25.114265"
       x="231.48601"
       height="4.472569"
       width="4.472569"
       id="rect4781"
       style="opacity:0.81499999;fill:#333333;fill-opacity:1;fill-rule:nonzero;stroke:#aaaaaa;stroke-width:0.55907112;stroke-linecap:round;stroke-linejoin:round;stroke-miterlimit:4;stroke-dasharray:none;stroke-dashoffset:0;stroke-opacity:0.6"
       transform="rotate(90)" />
    <rect
       style="opacity:0.81499999;fill:#4c8def;fill-opacity:1;fill-rule:nonzero;stroke:#333333;stroke-width:0.55907112;stroke-linecap:round;stroke-linejoin:round;stroke-miterlimit:4;stroke-dasharray:none;stroke-dashoffset:0;stroke-opacity:1"
       id="rect4783"
       width="4.472569"
       height="4.472569"
       x="221.42273"
       y="-20.082638"
       rx="0.55907112"
       transform="rotate(90)" />
    <rect
       rx="0.55907112"
       y="-20.082638"
       x="226.45438"
       height="4.472569"
       width="4.472569"
       id="rect4785"
       style="opacity:0.81499999;fill:#333333;fill-opacity:1;fill-rule:nonzero;stroke:#aaaaaa;stroke-width:0.55907112;stroke-linecap:round;stroke-linejoin:round;stroke-miterlimit:4;stroke-dasharray:none;stroke-dashoffset:0;stroke-opacity:0.6"
       transform="rotate(90)" />
    <rect
       style="opacity:0.81499999;fill:#333333;fill-opacity:1;fill-rule:nonzero;stroke:#aaaaaa;stroke-width:0.55907112;stroke-linecap:round;stroke-linejoin:round;stroke-miterlimit:4;stroke-dasharray:none;stroke-dashoffset:0;stroke-opacity:0.6"
       id="rect4787"
       width="4.472569"
       height="4.472569"
       x="231.48601"
       y="-20.082638"
       rx="0.55907112"
       transform="rotate(90)" />
    <rect
       rx="0.55907112"
       y="-15.051011"
       x="221.42273"
       height="4.472569"
       width="4.472569"
       id="rect4789"
       style="opacity:0.81499999;fill:#4c8def;fill-opacity:1;fill-rule:nonzero;stroke:#333333;stroke-width:0.55907112;stroke-linecap:round;stroke-linejoin:round;stroke-miterlimit:4;stroke-dasharray:none;stroke-dashoffset:0;stroke-opacity:1"
       transform="rotate(90)" />
    <rect
       style="opacity:0.81499999;fill:#4c8def;fill-opacity:1;fill-rule:nonzero;stroke:#333333;stroke-width:0.55907112;stroke-linecap:round;stroke-linejoin:round;stroke-miterlimit:4;stroke-dasharray:none;stroke-dashoffset:0;stroke-opacity:1"
       id="rect4791"
       width="4.472569"
       height="4.472569"
       x="226.45438"
       y="-15.051011"
       rx="0.55907112"
       transform="rotate(90)" />
    <rect
       rx="0.55907112"
       y="-15.051011"
       x="231.48601"
       height="4.472569"
       width="4.472569"
       id="rect4793"
       style="opacity:0.81499999;fill:#333333;fill-opacity:1;fill-rule:nonzero;stroke:#aaaaaa;stroke-width:0.55907112;stroke-linecap:round;stroke-linejoin:round;stroke-miterlimit:4;stroke-dasharray:none;stroke-dashoffset:0;stroke-opacity:0.6"
       transform="rotate(90)" />
    <rect
       rx="0.55907112"
       y="-9.7185011"
       x="196.26453"
       height="4.472569"
       width="4.472569"
       id="rect4797"
       style="opacity:0.81499999;fill:#4c8def;fill-opacity:1;fill-rule:nonzero;stroke:#333333;stroke-width:0.55907112;stroke-linecap:round;stroke-linejoin:round;stroke-miterlimit:4;stroke-dasharray:none;stroke-dashoffset:0;stroke-opacity:1"
       transform="rotate(90)" />
    <rect
       style="opacity:0.81499999;fill:#333333;fill-opacity:1;fill-rule:nonzero;stroke:#aaaaaa;stroke-width:0.55907112;stroke-linecap:round;stroke-linejoin:round;stroke-miterlimit:4;stroke-dasharray:none;stroke-dashoffset:0;stroke-opacity:0.6"
       id="rect4799"
       width="4.472569"
       height="4.472569"
       x="201.29617"
       y="-9.7185011"
       rx="0.55907112"
       transform="rotate(90)" />
    <rect
       rx="0.55907112"
       y="-9.7185011"
       x="206.32782"
       height="4.472569"
       width="4.472569"
       id="rect4801"
       style="opacity:0.81499999;fill:#333333;fill-opacity:1;fill-rule:nonzero;stroke:#aaaaaa;stroke-width:0.55907112;stroke-linecap:round;stroke-linejoin:round;stroke-miterlimit:4;stroke-dasharray:none;stroke-dashoffset:0;stroke-opacity:0.6"
       transform="rotate(90)" />
    <rect
       style="opacity:0.81499999;fill:#333333;fill-opacity:1;fill-rule:nonzero;stroke:#aaaaaa;stroke-width:0.55907112;stroke-linecap:round;stroke-linejoin:round;stroke-miterlimit:4;stroke-dasharray:none;stroke-dashoffset:0;stroke-opacity:0.6"
       id="rect4803"
       width="4.472569"
       height="4.472569"
       x="211.35945"
       y="-9.7185011"
       rx="0.55907112"
       transform="rotate(90)" />
    <rect
       rx="0.55907112"
       y="-9.7185011"
       x="216.3911"
       height="4.472569"
       width="4.472569"
       id="rect4805"
       style="opacity:0.81499999;fill:#333333;fill-opacity:1;fill-rule:nonzero;stroke:#aaaaaa;stroke-width:0.55907112;stroke-linecap:round;stroke-linejoin:round;stroke-miterlimit:4;stroke-dasharray:none;stroke-dashoffset:0;stroke-opacity:0.6"
       transform="rotate(90)" />
    <rect
       style="opacity:0.81499999;fill:#4c8def;fill-opacity:1;fill-rule:nonzero;stroke:#333333;stroke-width:0.55907112;stroke-linecap:round;stroke-linejoin:round;stroke-miterlimit:4;stroke-dasharray:none;stroke-dashoffset:0;stroke-opacity:1"
       id="rect4807"
       width="4.472569"
       height="4.472569"
       x="221.42273"
       y="-9.7185011"
       rx="0.55907112"
       transform="rotate(90)" />
    <rect
       rx="0.55907112"
       y="-9.7185011"
       x="226.45438"
       height="4.472569"
       width="4.472569"
       id="rect4809"
       style="opacity:0.81499999;fill:#4c8def;fill-opacity:1;fill-rule:nonzero;stroke:#333333;stroke-width:0.55907112;stroke-linecap:round;stroke-linejoin:round;stroke-miterlimit:4;stroke-dasharray:none;stroke-dashoffset:0;stroke-opacity:1"
       transform="rotate(90)" />
    <rect
       style="opacity:0.81499999;fill:#333333;fill-opacity:1;fill-rule:nonzero;stroke:#aaaaaa;stroke-width:0.55907112;stroke-linecap:round;stroke-linejoin:round;stroke-miterlimit:4;stroke-dasharray:none;stroke-dashoffset:0;stroke-opacity:0.6"
       id="rect4811"
       width="4.472569"
       height="4.472569"
       x="231.48601"
       y="-9.7185011"
       rx="0.55907112"
       transform="rotate(90)" />
    <rect
       style="opacity:0.81499999;fill:#333333;fill-opacity:1;fill-rule:nonzero;stroke:#aaaaaa;stroke-width:0.55907112;stroke-linecap:round;stroke-linejoin:round;stroke-miterlimit:4;stroke-dasharray:none;stroke-dashoffset:0;stroke-opacity:0.6"
       id="rect4813"
       width="4.472569"
       height="4.472569"
       x="201.29617"
       y="-20.082638"
       rx="0.55907112"
       transform="rotate(90)" />
    <rect
       rx="0.55907112"
       y="-25.114265"
       x="236.61008"
       height="4.472569"
       width="4.472569"
       id="rect4815"
       style="opacity:0.81499999;fill:#4c8def;fill-opacity:1;fill-rule:nonzero;stroke:#333333;stroke-width:0.55907112;stroke-linecap:round;stroke-linejoin:round;stroke-miterlimit:4;stroke-dasharray:none;stroke-dashoffset:0;stroke-opacity:1"
       transform="rotate(90)" />
    <rect
       style="opacity:0.81499999;fill:#4c8def;fill-opacity:1;fill-rule:nonzero;stroke:#333333;stroke-width:0.55907112;stroke-linecap:round;stroke-linejoin:round;stroke-miterlimit:4;stroke-dasharray:none;stroke-dashoffset:0;stroke-opacity:1"
       id="rect4817"
       width="4.472569"
       height="4.472569"
       x="241.64172"
       y="-25.114265"
       rx="0.55907112"
       transform="rotate(90)" />
    <rect
       style="opacity:0.81499999;fill:#333333;fill-opacity:1;fill-rule:nonzero;stroke:#aaaaaa;stroke-width:0.55907112;stroke-linecap:round;stroke-linejoin:round;stroke-miterlimit:4;stroke-dasharray:none;stroke-dashoffset:0;stroke-opacity:0.6"
       id="rect4819"
       width="4.472569"
       height="4.472569"
       x="236.61008"
       y="-20.082638"
       rx="0.55907112"
       transform="rotate(90)" />
    <rect
       rx="0.55907112"
       y="-20.082638"
       x="241.64172"
       height="4.472569"
       width="4.472569"
       id="rect4821"
       style="opacity:0.81499999;fill:#333333;fill-opacity:1;fill-rule:nonzero;stroke:#aaaaaa;stroke-width:0.55907112;stroke-linecap:round;stroke-linejoin:round;stroke-miterlimit:4;stroke-dasharray:none;stroke-dashoffset:0;stroke-opacity:0.6"
       transform="rotate(90)" />
    <rect
       rx="0.55907112"
       y="-15.051011"
       x="236.61008"
       height="4.472569"
       width="4.472569"
       id="rect4823"
       style="opacity:0.81499999;fill:#4c8def;fill-opacity:1;fill-rule:nonzero;stroke:#333333;stroke-width:0.55907112;stroke-linecap:round;stroke-linejoin:round;stroke-miterlimit:4;stroke-dasharray:none;stroke-dashoffset:0;stroke-opacity:1"
       transform="rotate(90)" />
    <rect
       style="opacity:0.81499999;fill:#333333;fill-opacity:1;fill-rule:nonzero;stroke:#aaaaaa;stroke-width:0.55907112;stroke-linecap:round;stroke-linejoin:round;stroke-miterlimit:4;stroke-dasharray:none;stroke-dashoffset:0;stroke-opacity:0.6"
       id="rect4825"
       width="4.472569"
       height="4.472569"
       x="241.64172"
       y="-15.051011"
       rx="0.55907112"
       transform="rotate(90)" />
    <rect
       style="opacity:0.81499999;fill:#333333;fill-opacity:1;fill-rule:nonzero;stroke:#aaaaaa;stroke-width:0.55907112;stroke-linecap:round;stroke-linejoin:round;stroke-miterlimit:4;stroke-dasharray:none;stroke-dashoffset:0;stroke-opacity:0.6"
       id="rect4827"
       width="4.472569"
       height="4.472569"
       x="236.61008"
       y="-9.7185011"
       rx="0.55907112"
       transform="rotate(90)" />
    <rect
       rx="0.55907112"
       y="-9.7185011"
       x="241.64172"
       height="4.472569"
       width="4.472569"
       id="rect4829"
       style="opacity:0.81499999;fill:#333333;fill-opacity:1;fill-rule:nonzero;stroke:#aaaaaa;stroke-width:0.55907112;stroke-linecap:round;stroke-linejoin:round;stroke-miterlimit:4;stroke-dasharray:none;stroke-dashoffset:0;stroke-opacity:0.6"
       transform="rotate(90)" />
    <rect
       style="opacity:0.81499999;fill:#4c8def;fill-opacity:1;fill-rule:nonzero;stroke:#333333;stroke-width:0.55907112;stroke-linecap:round;stroke-linejoin:round;stroke-miterlimit:4;stroke-dasharray:none;stroke-dashoffset:0;stroke-opacity:1"
       id="rect4831"
       width="4.472569"
       height="4.472569"
       x="236.61008"
       y="-25.114265"
       rx="0.55907112"
       transform="rotate(90)" />
    <rect
       rx="0.55907112"
       y="-20.082638"
       x="236.61008"
       height="4.472569"
       width="4.472569"
       id="rect4833"
       style="opacity:0.81499999;fill:#333333;fill-opacity:1;fill-rule:nonzero;stroke:#aaaaaa;stroke-width:0.55907112;stroke-linecap:round;stroke-linejoin:round;stroke-miterlimit:4;stroke-dasharray:none;stroke-dashoffset:0;stroke-opacity:0.6"
       transform="rotate(90)" />
    <rect
       style="opacity:0.81499999;fill:#4c8def;fill-opacity:1;fill-rule:nonzero;stroke:#333333;stroke-width:0.55907112;stroke-linecap:round;stroke-linejoin:round;stroke-miterlimit:4;stroke-dasharray:none;stroke-dashoffset:0;stroke-opacity:1"
       id="rect4835"
       width="4.472569"
       height="4.472569"
       x="236.61008"
       y="-15.051011"
       rx="0.55907112"
       transform="rotate(90)" />
    <rect
       rx="0.55907112"
       y="-9.7185011"
       x="236.61008"
       height="4.472569"
       width="4.472569"
       id="rect4837"
       style="opacity:0.81499999;fill:#333333;fill-opacity:1;fill-rule:nonzero;stroke:#aaaaaa;stroke-width:0.55907112;stroke-linecap:round;stroke-linejoin:round;stroke-miterlimit:4;stroke-dasharray:none;stroke-dashoffset:0;stroke-opacity:0.6"
       transform="rotate(90)" />
    <rect
       rx="0.55907112"
       y="-25.114265"
       x="246.65721"
       height="4.472569"
       width="4.472569"
       id="rect4839"
       style="opacity:0.81499999;fill:#4c8def;fill-opacity:1;fill-rule:nonzero;stroke:#333333;stroke-width:0.55907112;stroke-linecap:round;stroke-linejoin:round;stroke-miterlimit:4;stroke-dasharray:none;stroke-dashoffset:0;stroke-opacity:1"
       transform="rotate(90)" />
    <rect
       style="opacity:0.81499999;fill:#333333;fill-opacity:1;fill-rule:nonzero;stroke:#aaaaaa;stroke-width:0.55907112;stroke-linecap:round;stroke-linejoin:round;stroke-miterlimit:4;stroke-dasharray:none;stroke-dashoffset:0;stroke-opacity:0.6"
       id="rect4841"
       width="4.472569"
       height="4.472569"
       x="246.65721"
       y="-20.082638"
       rx="0.55907112"
       transform="rotate(90)" />
    <rect
       rx="0.55907112"
       y="-15.051011"
       x="246.65721"
       height="4.472569"
       width="4.472569"
       id="rect4843"
       style="opacity:0.81499999;fill:#4c8def;fill-opacity:1;fill-rule:nonzero;stroke:#333333;stroke-width:0.55907112;stroke-linecap:round;stroke-linejoin:round;stroke-miterlimit:4;stroke-dasharray:none;stroke-dashoffset:0;stroke-opacity:1"
       transform="rotate(90)" />
    <rect
       style="opacity:0.81499999;fill:#4c8def;fill-opacity:1;fill-rule:nonzero;stroke:#333333;stroke-width:0.55907112;stroke-linecap:round;stroke-linejoin:round;stroke-miterlimit:4;stroke-dasharray:none;stroke-dashoffset:0;stroke-opacity:1"
       id="rect4845"
       width="4.472569"
       height="4.472569"
       x="246.65721"
       y="-9.7185011"
       rx="0.55907112"
       transform="rotate(90)" />
    <rect
       style="opacity:0.81499999;fill:#4c8def;fill-opacity:1;fill-rule:nonzero;stroke:#333333;stroke-width:0.55907112;stroke-linecap:round;stroke-linejoin:round;stroke-miterlimit:4;stroke-dasharray:none;stroke-dashoffset:0;stroke-opacity:1"
       id="rect4847"
       width="4.472569"
       height="4.472569"
       x="251.68721"
       y="-25.114265"
       rx="0.55907112"
       transform="rotate(90)" />
    <rect
       rx="0.55907112"
       y="-20.082638"
       x="251.68721"
       height="4.472569"
       width="4.472569"
       id="rect4849"
       style="opacity:0.81499999;fill:#333333;fill-opacity:1;fill-rule:nonzero;stroke:#aaaaaa;stroke-width:0.55907112;stroke-linecap:round;stroke-linejoin:round;stroke-miterlimit:4;stroke-dasharray:none;stroke-dashoffset:0;stroke-opacity:0.6"
       transform="rotate(90)" />
    <rect
       style="opacity:0.81499999;fill:#4c8def;fill-opacity:1;fill-rule:nonzero;stroke:#333333;stroke-width:0.55907112;stroke-linecap:round;stroke-linejoin:round;stroke-miterlimit:4;stroke-dasharray:none;stroke-dashoffset:0;stroke-opacity:1"
       id="rect4851"
       width="4.472569"
       height="4.472569"
       x="251.68721"
       y="-15.051011"
       rx="0.55907112"
       transform="rotate(90)" />
    <rect
       rx="0.55907112"
       y="-9.7185011"
       x="251.68721"
       height="4.472569"
       width="4.472569"
       id="rect4853"
       style="opacity:0.81499999;fill:#333333;fill-opacity:1;fill-rule:nonzero;stroke:#aaaaaa;stroke-width:0.55907112;stroke-linecap:round;stroke-linejoin:round;stroke-miterlimit:4;stroke-dasharray:none;stroke-dashoffset:0;stroke-opacity:0.6"
       transform="rotate(90)" />
    <rect
       rx="0.55907112"
       y="-25.114265"
       x="251.68721"
       height="4.472569"
       width="4.472569"
       id="rect4855"
       style="opacity:0.81499999;fill:#4c8def;fill-opacity:1;fill-rule:nonzero;stroke:#333333;stroke-width:0.55907112;stroke-linecap:round;stroke-linejoin:round;stroke-miterlimit:4;stroke-dasharray:none;stroke-dashoffset:0;stroke-opacity:1"
       transform="rotate(90)" />
    <rect
       style="opacity:0.81499999;fill:#333333;fill-opacity:1;fill-rule:nonzero;stroke:#aaaaaa;stroke-width:0.55907112;stroke-linecap:round;stroke-linejoin:round;stroke-miterlimit:4;stroke-dasharray:none;stroke-dashoffset:0;stroke-opacity:0.6"
       id="rect4857"
       width="4.472569"
       height="4.472569"
       x="251.68721"
       y="-20.082638"
       rx="0.55907112"
       transform="rotate(90)" />
    <rect
       rx="0.55907112"
       y="-15.051011"
       x="251.68721"
       height="4.472569"
       width="4.472569"
       id="rect4859"
       style="opacity:0.81499999;fill:#4c8def;fill-opacity:1;fill-rule:nonzero;stroke:#333333;stroke-width:0.55907112;stroke-linecap:round;stroke-linejoin:round;stroke-miterlimit:4;stroke-dasharray:none;stroke-dashoffset:0;stroke-opacity:1"
       transform="rotate(90)" />
    <rect
       style="opacity:0.81499999;fill:#333333;fill-opacity:1;fill-rule:nonzero;stroke:#aaaaaa;stroke-width:0.55907112;stroke-linecap:round;stroke-linejoin:round;stroke-miterlimit:4;stroke-dasharray:none;stroke-dashoffset:0;stroke-opacity:0.6"
       id="rect4861"
       width="4.472569"
       height="4.472569"
       x="251.68721"
       y="-9.7185011"
       rx="0.55907112"
       transform="rotate(90)" />
    <rect
       rx="0.55907112"
       y="-25.114265"
       x="256.7178"
       height="4.472569"
       width="4.472569"
       id="rect4863"
       style="opacity:0.81499999;fill:#4c8def;fill-opacity:1;fill-rule:nonzero;stroke:#333333;stroke-width:0.55907112;stroke-linecap:round;stroke-linejoin:round;stroke-miterlimit:4;stroke-dasharray:none;stroke-dashoffset:0;stroke-opacity:1"
       transform="rotate(90)" />
    <rect
       style="opacity:0.81499999;fill:#333333;fill-opacity:1;fill-rule:nonzero;stroke:#aaaaaa;stroke-width:0.55907112;stroke-linecap:round;stroke-linejoin:round;stroke-miterlimit:4;stroke-dasharray:none;stroke-dashoffset:0;stroke-opacity:0.6"
       id="rect4865"
       width="4.472569"
       height="4.472569"
       x="256.7178"
       y="-20.082638"
       rx="0.55907112"
       transform="rotate(90)" />
    <rect
       rx="0.55907112"
       y="-15.051011"
       x="256.7178"
       height="4.472569"
       width="4.472569"
       id="rect4867"
       style="opacity:0.81499999;fill:#4c8def;fill-opacity:1;fill-rule:nonzero;stroke:#333333;stroke-width:0.55907112;stroke-linecap:round;stroke-linejoin:round;stroke-miterlimit:4;stroke-dasharray:none;stroke-dashoffset:0;stroke-opacity:1"
       transform="rotate(90)" />
    <rect
       style="opacity:0.81499999;fill:#333333;fill-opacity:1;fill-rule:nonzero;stroke:#aaaaaa;stroke-width:0.55907112;stroke-linecap:round;stroke-linejoin:round;stroke-miterlimit:4;stroke-dasharray:none;stroke-dashoffset:0;stroke-opacity:0.6"
       id="rect4869"
       width="4.472569"
       height="4.472569"
       x="256.7178"
       y="-9.7185011"
       rx="0.55907112"
       transform="rotate(90)" />
    <rect
       style="opacity:0.81499999;fill:#4c8def;fill-opacity:1;fill-rule:nonzero;stroke:#333333;stroke-width:0.55907112;stroke-linecap:round;stroke-linejoin:round;stroke-miterlimit:4;stroke-dasharray:none;stroke-dashoffset:0;stroke-opacity:1"
       id="rect4871"
       width="4.472569"
       height="4.472569"
       x="256.7178"
       y="-25.114265"
       rx="0.55907112"
       transform="rotate(90)" />
    <rect
       rx="0.55907112"
       y="-20.082638"
       x="256.7178"
       height="4.472569"
       width="4.472569"
       id="rect4873"
       style="opacity:0.81499999;fill:#333333;fill-opacity:1;fill-rule:nonzero;stroke:#aaaaaa;stroke-width:0.55907112;stroke-linecap:round;stroke-linejoin:round;stroke-miterlimit:4;stroke-dasharray:none;stroke-dashoffset:0;stroke-opacity:0.6"
       transform="rotate(90)" />
    <rect
       style="opacity:0.81499999;fill:#4c8def;fill-opacity:1;fill-rule:nonzero;stroke:#333333;stroke-width:0.55907112;stroke-linecap:round;stroke-linejoin:round;stroke-miterlimit:4;stroke-dasharray:none;stroke-dashoffset:0;stroke-opacity:1"
       id="rect4875"
       width="4.472569"
       height="4.472569"
       x="256.7178"
       y="-15.051011"
       rx="0.55907112"
       transform="rotate(90)" />
    <rect
       rx="0.55907112"
       y="-9.7185011"
       x="256.7178"
       height="4.472569"
       width="4.472569"
       id="rect4877"
       style="opacity:0.81499999;fill:#333333;fill-opacity:1;fill-rule:nonzero;stroke:#aaaaaa;stroke-width:0.55907112;stroke-linecap:round;stroke-linejoin:round;stroke-miterlimit:4;stroke-dasharray:none;stroke-dashoffset:0;stroke-opacity:0.6"
       transform="rotate(90)" />
    <rect
       style="opacity:0.81499999;fill:#4c8def;fill-opacity:1;fill-rule:nonzero;stroke:#333333;stroke-width:0.55907112;stroke-linecap:round;stroke-linejoin:round;stroke-miterlimit:4;stroke-dasharray:none;stroke-dashoffset:0;stroke-opacity:1"
       id="rect4879"
       width="4.472569"
       height="4.472569"
       x="261.76044"
       y="-25.114265"
       rx="0.55907112"
       transform="rotate(90)" />
    <rect
       rx="0.55907112"
       y="-20.082638"
       x="261.76044"
       height="4.472569"
       width="4.472569"
       id="rect4881"
       style="opacity:0.81499999;fill:#4c8def;fill-opacity:1;fill-rule:nonzero;stroke:#333333;stroke-width:0.55907112;stroke-linecap:round;stroke-linejoin:round;stroke-miterlimit:4;stroke-dasharray:none;stroke-dashoffset:0;stroke-opacity:1"
       transform="rotate(90)" />
    <rect
       style="opacity:0.81499999;fill:#333333;fill-opacity:1;fill-rule:nonzero;stroke:#aaaaaa;stroke-width:0.55907112;stroke-linecap:round;stroke-linejoin:round;stroke-miterlimit:4;stroke-dasharray:none;stroke-dashoffset:0;stroke-opacity:0.6"
       id="rect4883"
       width="4.472569"
       height="4.472569"
       x="261.76044"
       y="-15.051011"
       rx="0.55907112"
       transform="rotate(90)" />
    <rect
       rx="0.55907112"
       y="-9.7185011"
       x="261.76044"
       height="4.472569"
       width="4.472569"
       id="rect4885"
       style="opacity:0.81499999;fill:#4c8def;fill-opacity:1;fill-rule:nonzero;stroke:#333333;stroke-width:0.55907112;stroke-linecap:round;stroke-linejoin:round;stroke-miterlimit:4;stroke-dasharray:none;stroke-dashoffset:0;stroke-opacity:1"
       transform="rotate(90)" />
    <path
       style="fill:#457aca;fill-opacity:1;fill-rule:evenodd;stroke:none;stroke-width:0.3669771;stroke-linecap:round;stroke-linejoin:round;stroke-miterlimit:4;stroke-dasharray:none;stroke-opacity:1"
       d="m 37.275711,256.44741 c 0,0 90.204789,-0.0353 90.220679,0.44816 0.0289,0.87922 -95.392567,2.86818 -95.392567,2.86818 0,0 10.691293,-0.59885 10.70325,-2.01043 -0.01181,-0.48428 -5.531362,-1.30591 -5.531362,-1.30591 z"
       id="path4967"
       inkscape:connector-curvature="0"
       sodipodi:nodetypes="csccc" />
    <path
       style="opacity:0.85700001;fill:#000000;fill-opacity:1;fill-rule:nonzero;stroke:none;stroke-width:0.3669771;stroke-linecap:round;stroke-linejoin:round;stroke-miterlimit:4;stroke-dasharray:none;stroke-dashoffset:0;stroke-opacity:1"
       d="m 29.265915,252.044 v 13.49685 H 132.29839 V 252.044 Z m 8.009848,4.61574 c 0,0 90.204957,-0.0354 90.220847,0.44803 0.0289,0.87922 -95.392626,2.86805 -95.392626,2.86805 0,0 10.691265,-0.59864 10.703224,-2.01022 -0.01181,-0.48428 -5.531445,-1.30586 -5.531445,-1.30586 z"
       id="rect4780"
       inkscape:connector-curvature="0"
       mask="url(#mask4788)" />
    <g
       id="g5336"
       transform="matrix(1.7717251,0,0,1.7717251,-102.02868,-260.65943)">
      <g
         style="fill:#1a1a1a"
         transform="matrix(0.08487438,0,0,0.08487438,106.51704,245.13484)"
         id="g89">
        <path
           inkscape:connector-curvature="0"
           d="m 236.283,164.577 h 19.455 l -29.968,50.5 c -1.711,2.815 -3.381,4.981 -5.009,6.499 -1.628,1.518 -3.132,2.622 -4.512,3.311 -1.38,0.691 -2.566,1.091 -3.56,1.201 -0.993,0.111 -1.685,0.166 -2.07,0.166 h -17.882 v -43.628 h 16.723 l 0.083,29.968 z"
           id="path91"
           style="fill:#1a1a1a" />
      </g>
      <rect
         style="fill:#1a1a1a;stroke-width:0.08487438"
         id="rect95"
         height="1.2029246"
         width="9.914855"
         y="264.33792"
         x="112.96062" />
      <g
         transform="matrix(0.08487438,0,0,0.08487438,106.51704,245.13484)"
         id="g97">
        <path
           style="fill:#ffffff"
           id="path99"
           d="m 101.065,231.774 c 0.036,-0.249 -0.007,-0.421 -0.131,-0.516 h 0.007 c -0.114,-0.086 -0.278,-0.129 -0.497,-0.129 h -4.098 c -0.245,0 -0.472,0.056 -0.68,0.169 -0.185,0.096 -0.3,0.208 -0.348,0.34 l -0.435,1.196 h 3.024 l -0.305,0.836 h -3.024 l -0.93,2.555 h -0.843 l 1.67,-4.587 c 0.136,-0.375 0.422,-0.698 0.854,-0.965 0.42,-0.257 0.862,-0.387 1.323,-0.387 h 4.098 c 0.435,0 0.758,0.121 0.971,0.36 0.234,0.24 0.299,0.616 0.194,1.128 z"
           inkscape:connector-curvature="0" />
        <path
           style="fill:#ffffff"
           id="path101"
           d="m 107.115,233.377 c 0.017,-0.235 -0.054,-0.396 -0.212,-0.482 -0.059,-0.036 -0.125,-0.062 -0.2,-0.075 -0.075,-0.013 -0.153,-0.02 -0.234,-0.02 h -1.979 c -0.199,0 -0.397,0.038 -0.592,0.116 -0.226,0.086 -0.362,0.194 -0.41,0.326 l -1.086,2.983 h -0.843 l 1.551,-4.261 h 0.843 l -0.064,0.176 c 0.167,-0.063 0.322,-0.108 0.467,-0.136 0.143,-0.027 0.288,-0.041 0.433,-0.041 h 1.984 c 0.376,0 0.683,0.095 0.922,0.285 0.287,0.231 0.372,0.607 0.255,1.128 h -0.835 z"
           inkscape:connector-curvature="0" />
        <path
           style="fill:#ffffff"
           id="path103"
           d="m 114.616,233.228 c -0.144,0.395 -0.456,0.718 -0.938,0.972 -0.397,0.208 -0.801,0.312 -1.208,0.312 h -1.979 c -0.131,0 -0.253,-0.01 -0.368,-0.033 -0.114,-0.022 -0.252,-0.065 -0.415,-0.129 l -0.208,0.57 -0.005,0.014 c -0.03,0.118 0.041,0.225 0.21,0.32 0.072,0.05 0.148,0.084 0.227,0.106 0.079,0.02 0.16,0.03 0.24,0.03 h 1.979 c 0.081,0 0.164,-0.007 0.248,-0.02 0.085,-0.014 0.169,-0.04 0.255,-0.075 0.221,-0.087 0.409,-0.248 0.563,-0.483 h 0.835 c -0.26,0.516 -0.617,0.89 -1.073,1.122 -0.374,0.194 -0.751,0.292 -1.132,0.292 h -1.978 c -0.381,0 -0.7,-0.099 -0.958,-0.299 -0.322,-0.25 -0.409,-0.578 -0.261,-0.985 l 0.621,-1.706 c 0.147,-0.404 0.453,-0.725 0.916,-0.966 0.39,-0.204 0.801,-0.305 1.232,-0.305 h 1.978 c 0.417,0 0.748,0.097 0.995,0.292 0.298,0.24 0.373,0.563 0.224,0.971 z m -0.848,0.014 c 0.04,-0.108 0,-0.204 -0.12,-0.285 -0.129,-0.104 -0.317,-0.156 -0.561,-0.156 h -1.971 c -0.172,0 -0.368,0.038 -0.585,0.116 -0.229,0.082 -0.367,0.188 -0.415,0.319 -0.046,0.126 0.012,0.233 0.175,0.319 0.147,0.082 0.316,0.122 0.506,0.122 h 1.979 c 0.235,0 0.457,-0.049 0.666,-0.149 0.177,-0.082 0.287,-0.177 0.326,-0.286 z"
           inkscape:connector-curvature="0" />
        <path
           style="fill:#ffffff"
           id="path105"
           d="m 121.25,233.228 c -0.144,0.395 -0.456,0.718 -0.938,0.972 -0.397,0.208 -0.801,0.312 -1.208,0.312 h -1.978 c -0.132,0 -0.253,-0.01 -0.369,-0.033 -0.114,-0.022 -0.252,-0.065 -0.414,-0.129 l -0.208,0.57 -0.005,0.014 c -0.03,0.118 0.04,0.225 0.209,0.32 0.073,0.05 0.148,0.084 0.227,0.106 0.079,0.02 0.16,0.03 0.24,0.03 h 1.979 c 0.081,0 0.164,-0.007 0.248,-0.02 0.085,-0.014 0.17,-0.04 0.255,-0.075 0.221,-0.087 0.409,-0.248 0.563,-0.483 h 0.835 c -0.26,0.516 -0.617,0.89 -1.073,1.122 -0.374,0.194 -0.751,0.292 -1.132,0.292 h -1.979 c -0.38,0 -0.7,-0.099 -0.958,-0.299 -0.322,-0.25 -0.409,-0.578 -0.26,-0.985 l 0.621,-1.706 c 0.147,-0.404 0.453,-0.725 0.917,-0.966 0.39,-0.204 0.801,-0.305 1.231,-0.305 h 1.979 c 0.416,0 0.748,0.097 0.994,0.292 0.298,0.24 0.372,0.563 0.224,0.971 z m -0.848,0.014 c 0.04,-0.108 -0.001,-0.204 -0.121,-0.285 -0.129,-0.104 -0.317,-0.156 -0.561,-0.156 h -1.971 c -0.172,0 -0.368,0.038 -0.585,0.116 -0.229,0.082 -0.367,0.188 -0.415,0.319 -0.046,0.126 0.013,0.233 0.176,0.319 0.147,0.082 0.316,0.122 0.506,0.122 h 1.978 c 0.235,0 0.457,-0.049 0.666,-0.149 0.178,-0.082 0.287,-0.177 0.327,-0.286 z"
           inkscape:connector-curvature="0" />
        <path
           style="fill:#ffffff"
           id="path107"
           d="m 133.99,235.845 c -0.404,0.253 -0.84,0.38 -1.306,0.38 h -4.112 c -0.431,0 -0.753,-0.116 -0.968,-0.347 -0.231,-0.249 -0.296,-0.629 -0.196,-1.141 h 0.836 c -0.029,0.24 0.017,0.412 0.138,0.516 h -0.007 c 0.122,0.09 0.289,0.136 0.501,0.136 h 4.112 c 0.24,0 0.464,-0.057 0.672,-0.169 0.19,-0.101 0.31,-0.215 0.358,-0.347 l 0.247,-0.68 c 0.048,-0.131 0.013,-0.247 -0.105,-0.347 -0.125,-0.113 -0.312,-0.17 -0.556,-0.17 h -4.105 c -0.461,0 -0.808,-0.126 -1.037,-0.38 -0.244,-0.264 -0.296,-0.588 -0.154,-0.979 l 0.248,-0.68 c 0.136,-0.375 0.422,-0.698 0.854,-0.965 0.42,-0.257 0.862,-0.387 1.323,-0.387 h 4.112 c 0.431,0 0.75,0.121 0.962,0.36 0.234,0.24 0.3,0.616 0.194,1.128 h -0.835 c 0.028,-0.24 -0.018,-0.413 -0.14,-0.516 h 0.007 c -0.113,-0.086 -0.279,-0.129 -0.496,-0.129 h -4.112 c -0.245,0 -0.474,0.056 -0.687,0.169 -0.185,0.096 -0.3,0.208 -0.348,0.34 l -0.248,0.68 c -0.05,0.136 -0.018,0.254 0.096,0.354 0.125,0.113 0.314,0.169 0.563,0.169 h 4.112 c 0.466,0 0.81,0.127 1.029,0.381 0.243,0.267 0.295,0.59 0.156,0.972 l -0.247,0.68 c -0.137,0.385 -0.425,0.71 -0.861,0.972 z"
           inkscape:connector-curvature="0" />
        <path
           style="fill:#ffffff"
           id="path109"
           d="m 140.523,235.913 c -0.393,0.208 -0.796,0.312 -1.208,0.312 h -1.979 c -0.403,0 -0.73,-0.102 -0.982,-0.305 -0.305,-0.25 -0.382,-0.577 -0.236,-0.979 l 0.621,-1.706 c 0.144,-0.395 0.456,-0.718 0.939,-0.972 0.397,-0.208 0.802,-0.312 1.214,-0.312 h 1.979 c 0.389,0 0.709,0.097 0.96,0.292 0.315,0.254 0.4,0.582 0.253,0.985 l -0.623,1.713 c -0.143,0.393 -0.455,0.718 -0.938,0.972 z m 0.718,-2.685 c 0.046,-0.127 -0.012,-0.232 -0.175,-0.32 -0.139,-0.077 -0.307,-0.115 -0.501,-0.115 h -1.979 c -0.199,0 -0.394,0.036 -0.583,0.108 -0.232,0.091 -0.372,0.199 -0.418,0.326 l -0.625,1.72 c -0.046,0.127 0.012,0.233 0.175,0.319 0.147,0.081 0.314,0.122 0.5,0.122 h 1.984 c 0.09,0 0.183,-0.009 0.282,-0.027 0.097,-0.019 0.196,-0.047 0.296,-0.089 0.232,-0.09 0.372,-0.201 0.42,-0.332 z"
           inkscape:connector-curvature="0" />
        <path
           style="fill:#ffffff"
           id="path111"
           d="m 144.375,232.8 -1.247,3.425 h -0.843 l 1.696,-4.662 c 0.146,-0.399 0.418,-0.718 0.819,-0.959 0.352,-0.208 0.792,-0.312 1.323,-0.312 l -0.299,0.823 c -0.331,0.049 -0.571,0.113 -0.723,0.189 -0.15,0.078 -0.242,0.165 -0.277,0.259 l -0.146,0.401 h 0.842 l -0.304,0.836 z"
           inkscape:connector-curvature="0" />
        <path
           style="fill:#ffffff"
           id="path113"
           d="m 148.193,232.8 -1.247,3.425 h -0.849 l 1.247,-3.425 h -0.836 l 0.304,-0.836 h 0.836 l 0.611,-1.678 h 0.849 l -0.611,1.678 h 0.843 l -0.304,0.836 z"
           inkscape:connector-curvature="0" />
        <path
           style="fill:#ffffff"
           id="path115"
           d="m 154.629,235.898 c -0.357,0.213 -0.762,0.32 -1.21,0.32 -0.244,0 -0.473,-0.035 -0.683,-0.103 -0.211,-0.068 -0.39,-0.174 -0.538,-0.319 -0.254,0.141 -0.516,0.247 -0.785,0.319 -0.269,0.073 -0.526,0.109 -0.771,0.109 -0.431,0 -0.752,-0.104 -0.966,-0.312 -0.236,-0.236 -0.279,-0.56 -0.129,-0.972 l 1.083,-2.977 h 0.843 l -1.086,2.983 c -0.046,0.127 -0.007,0.23 0.117,0.312 0.137,0.086 0.327,0.129 0.571,0.129 0.249,0 0.469,-0.043 0.659,-0.129 0.187,-0.077 0.304,-0.183 0.354,-0.318 l 0.668,-1.835 h 0.843 l -0.67,1.842 c -0.048,0.132 -0.008,0.233 0.12,0.306 0.136,0.086 0.322,0.129 0.558,0.129 0.253,0 0.475,-0.043 0.665,-0.129 0.188,-0.077 0.302,-0.179 0.349,-0.306 l 1.086,-2.983 h 0.85 l -1.083,2.977 c -0.144,0.398 -0.427,0.718 -0.845,0.957 z"
           inkscape:connector-curvature="0" />
        <path
           style="fill:#ffffff"
           id="path117"
           d="m 160.977,235.92 c -0.396,0.204 -0.804,0.305 -1.226,0.305 h -1.978 c -0.426,0 -0.762,-0.099 -1.005,-0.299 -0.294,-0.236 -0.368,-0.559 -0.217,-0.972 0.145,-0.398 0.457,-0.72 0.936,-0.965 0.397,-0.208 0.803,-0.313 1.214,-0.313 h 1.979 c 0.127,0 0.247,0.013 0.361,0.035 0.115,0.022 0.252,0.065 0.415,0.129 l 0.21,-0.578 c 0.027,-0.122 -0.04,-0.23 -0.2,-0.326 -0.144,-0.09 -0.299,-0.136 -0.466,-0.136 h -1.978 c -0.085,0 -0.171,0.007 -0.255,0.02 -0.084,0.014 -0.169,0.04 -0.255,0.075 -0.221,0.086 -0.409,0.248 -0.562,0.482 h -0.836 c 0.265,-0.516 0.621,-0.89 1.068,-1.121 0.375,-0.195 0.753,-0.292 1.139,-0.292 h 1.984 c 0.389,0 0.71,0.097 0.96,0.292 0.318,0.245 0.403,0.573 0.253,0.985 l -0.621,1.706 c -0.15,0.405 -0.456,0.728 -0.92,0.973 z m 0.072,-0.966 c 0.046,-0.126 -0.012,-0.233 -0.176,-0.319 -0.147,-0.082 -0.313,-0.123 -0.499,-0.123 h -1.979 c -0.231,0 -0.455,0.051 -0.672,0.151 -0.179,0.081 -0.288,0.176 -0.328,0.285 -0.042,0.113 -0.004,0.21 0.11,0.292 0.137,0.099 0.325,0.149 0.565,0.149 h 1.984 c 0.195,0 0.387,-0.036 0.576,-0.109 0.234,-0.09 0.372,-0.198 0.419,-0.326 z"
           inkscape:connector-curvature="0" />
        <path
           style="fill:#ffffff"
           id="path119"
           d="m 168.276,233.377 c 0.017,-0.235 -0.054,-0.396 -0.212,-0.482 -0.059,-0.036 -0.125,-0.062 -0.2,-0.075 -0.075,-0.013 -0.153,-0.02 -0.234,-0.02 h -1.978 c -0.199,0 -0.397,0.038 -0.593,0.116 -0.226,0.086 -0.362,0.194 -0.41,0.326 l -1.086,2.983 h -0.843 l 1.551,-4.261 h 0.843 l -0.064,0.176 c 0.167,-0.063 0.323,-0.108 0.467,-0.136 0.144,-0.027 0.288,-0.041 0.433,-0.041 h 1.984 c 0.376,0 0.683,0.095 0.922,0.285 0.287,0.231 0.372,0.607 0.255,1.128 h -0.835 z"
           inkscape:connector-curvature="0" />
        <path
           style="fill:#ffffff"
           id="path121"
           d="m 175.777,233.228 c -0.144,0.395 -0.456,0.718 -0.938,0.972 -0.397,0.208 -0.801,0.312 -1.208,0.312 h -1.978 c -0.132,0 -0.253,-0.01 -0.369,-0.033 -0.114,-0.022 -0.252,-0.065 -0.415,-0.129 l -0.208,0.57 -0.005,0.014 c -0.029,0.118 0.041,0.225 0.21,0.32 0.072,0.05 0.148,0.084 0.227,0.106 0.079,0.02 0.16,0.03 0.24,0.03 h 1.979 c 0.081,0 0.164,-0.007 0.248,-0.02 0.085,-0.014 0.17,-0.04 0.255,-0.075 0.221,-0.087 0.409,-0.248 0.563,-0.483 h 0.835 c -0.26,0.516 -0.617,0.89 -1.073,1.122 -0.374,0.194 -0.751,0.292 -1.132,0.292 h -1.979 c -0.381,0 -0.7,-0.099 -0.958,-0.299 -0.322,-0.25 -0.409,-0.578 -0.261,-0.985 l 0.621,-1.706 c 0.147,-0.404 0.453,-0.725 0.916,-0.966 0.391,-0.204 0.801,-0.305 1.232,-0.305 h 1.979 c 0.416,0 0.748,0.097 0.994,0.292 0.3,0.24 0.374,0.563 0.225,0.971 z m -0.848,0.014 c 0.04,-0.108 0,-0.204 -0.12,-0.285 -0.129,-0.104 -0.317,-0.156 -0.561,-0.156 h -1.971 c -0.172,0 -0.368,0.038 -0.585,0.116 -0.229,0.082 -0.367,0.188 -0.415,0.319 -0.046,0.126 0.013,0.233 0.176,0.319 0.147,0.082 0.316,0.122 0.506,0.122 h 1.978 c 0.235,0 0.457,-0.049 0.666,-0.149 0.178,-0.082 0.287,-0.177 0.326,-0.286 z"
           inkscape:connector-curvature="0" />
      </g>
      <g
         style="fill:#e6e6e6"
         transform="matrix(0.08487438,0,0,0.08487438,106.51704,245.13484)"
         id="g123">
        <path
           style="fill:#e6e6e6"
           inkscape:connector-curvature="0"
           d="m 112.576,215.739 c -1.287,1.009 -2.842,1.514 -4.666,1.514 H 91.716 c -1.842,0 -3.379,-0.496 -4.612,-1.487 -1.323,-1.027 -1.984,-2.293 -1.984,-3.798 v -12.643 c 0,-1.469 0.661,-2.726 1.984,-3.771 1.287,-1.009 2.843,-1.514 4.666,-1.514 h 16.222 c 1.698,0 3.137,0.469 4.317,1.408 1.233,0.938 2.028,2.417 2.386,4.436 h -3.298 c -0.232,-0.974 -0.67,-1.656 -1.314,-2.045 -0.554,-0.336 -1.26,-0.504 -2.118,-0.504 H 91.77 c -0.966,0 -1.788,0.222 -2.467,0.664 -0.589,0.372 -0.885,0.814 -0.885,1.328 v 12.643 c 0,0.531 0.295,0.992 0.885,1.381 l -0.026,-0.026 c 0.661,0.443 1.475,0.664 2.44,0.664 h 16.195 c 0.84,0 1.59,-0.177 2.252,-0.531 0.787,-0.372 1.18,-0.876 1.18,-1.514 v -4.648 H 98.231 v -3.267 h 16.383 v 7.941 c 0,1.468 -0.68,2.724 -2.038,3.769 z"
           id="path125" />
        <path
           style="fill:#e6e6e6"
           inkscape:connector-curvature="0"
           d="m 147.191,205.779 c -1.233,0.992 -2.78,1.487 -4.639,1.487 h -19.547 v 9.986 h -3.298 v -17.928 c 0,-1.469 0.661,-2.726 1.984,-3.771 1.287,-1.009 2.842,-1.514 4.666,-1.514 h 16.195 c 1.805,0 3.343,0.505 4.612,1.514 1.341,1.045 2.011,2.302 2.011,3.771 v 2.656 c 0,1.506 -0.661,2.772 -1.984,3.799 z m -1.287,-6.454 c 0,-0.495 -0.304,-0.938 -0.912,-1.328 -0.68,-0.442 -1.493,-0.664 -2.44,-0.664 H 126.33 c -0.822,0 -1.564,0.168 -2.226,0.504 -0.733,0.337 -1.099,0.833 -1.099,1.487 V 204 h 19.547 c 0.947,0 1.76,-0.212 2.44,-0.638 0.607,-0.389 0.912,-0.85 0.912,-1.381 z"
           id="path127" />
        <path
           style="fill:#e6e6e6"
           inkscape:connector-curvature="0"
           d="m 183.737,212.074 c -0.268,1.576 -1.019,2.842 -2.252,3.798 -1.198,0.92 -2.646,1.381 -4.343,1.381 H 160.92 c -1.823,0 -3.37,-0.496 -4.639,-1.487 -1.34,-1.027 -2.011,-2.293 -2.011,-3.798 v -17.901 h 3.352 v 17.901 c 0,0.531 0.295,0.992 0.885,1.381 l -0.026,-0.026 c 0.661,0.443 1.474,0.664 2.44,0.664 h 16.222 c 0.822,0 1.537,-0.177 2.145,-0.531 h -0.027 c 0.644,-0.389 1.081,-1.053 1.314,-1.992 h 2.627 z"
           id="path129" />
      </g>
      <g
         style="fill:#e6e6e6"
         transform="matrix(0.08487438,0,0,0.08487438,106.51704,245.13484)"
         id="g131">
        <path
           style="fill:#e6e6e6"
           inkscape:connector-curvature="0"
           d="m 270.385,211.954 c 0,1.505 -0.664,2.771 -1.992,3.798 -1.222,0.992 -2.745,1.487 -4.568,1.487 h -16.068 c -1.682,0 -3.107,-0.452 -4.276,-1.354 -1.257,-0.974 -2.054,-2.461 -2.391,-4.462 h 3.267 c 0.23,0.938 0.655,1.611 1.275,2.019 h -0.027 c 0.602,0.354 1.319,0.531 2.151,0.531 h 16.068 c 0.92,0 1.717,-0.213 2.391,-0.638 0.602,-0.389 0.903,-0.85 0.903,-1.381 v -2.656 c 0,-0.495 -0.301,-0.938 -0.903,-1.328 -0.708,-0.46 -1.514,-0.691 -2.417,-0.691 h -8.552 v -3.267 h 8.579 c 0.938,0 1.735,-0.221 2.391,-0.664 0.602,-0.389 0.903,-0.841 0.903,-1.354 v -2.656 c 0,-0.496 -0.301,-0.938 -0.903,-1.328 -0.708,-0.46 -1.514,-0.69 -2.417,-0.69 h -16.042 c -0.814,0 -1.523,0.177 -2.125,0.531 h 0.026 c -0.637,0.372 -1.071,1.045 -1.301,2.019 h -3.267 c 0.319,-2.019 1.098,-3.488 2.337,-4.409 1.168,-0.938 2.611,-1.407 4.329,-1.407 h 16.068 c 1.788,0 3.311,0.496 4.568,1.487 1.328,1.045 1.992,2.311 1.992,3.798 0,1.292 -0.053,2.47 -0.159,3.532 -0.036,0.531 -0.212,1.019 -0.531,1.461 -0.142,0.195 -0.305,0.398 -0.491,0.611 -0.186,0.213 -0.412,0.443 -0.677,0.69 0.513,0.478 0.903,0.921 1.168,1.328 0.301,0.496 0.478,0.974 0.531,1.434 0.107,1.045 0.16,2.231 0.16,3.559 z"
           id="path133" />
      </g>
    </g>
    <g
       aria-label="https://konkor.github.io"
       style="font-style:normal;font-variant:normal;font-weight:normal;font-stretch:normal;font-size:6.35000038px;line-height:6.61458349px;font-family:cpufreq;-inkscape-font-specification:cpufreq;letter-spacing:0px;word-spacing:0px;fill:#cccccc;fill-opacity:1;stroke:none;stroke-width:0.26458335px;stroke-linecap:butt;stroke-linejoin:miter;stroke-opacity:1"
       id="text4638">
      <path
         d="m 81.804861,262.99341 q 0.221864,-0.27733 0.545014,-0.27733 0.356912,0 0.542602,0.2508 0.185691,0.25081 0.188103,0.74759 v 1.65916 h -0.684885 v -1.65193 q 0,-0.2291 -0.07235,-0.33038 -0.06994,-0.1037 -0.229099,-0.1037 -0.185691,0 -0.289388,0.17122 v 1.91479 h -0.682474 v -3.70417 h 0.682474 z"
         style="font-style:normal;font-variant:normal;font-weight:bold;font-stretch:normal;font-size:4.93888903px;font-family:'Roboto Condensed';-inkscape-font-specification:'Roboto Condensed, Bold';fill:#cccccc;stroke-width:0.26458335px"
         id="path4644" />
      <path
         d="m 84.363533,262.12283 v 0.64148 h 0.349677 v 0.51367 h -0.349677 v 1.29501 q 0,0.15434 0.041,0.21221 0.04341,0.0579 0.163986,0.0579 0.09887,0 0.161575,-0.0169 l -0.0048,0.53055 q -0.173633,0.0651 -0.376204,0.0651 -0.66077,0 -0.668004,-0.75723 v -1.38665 h -0.301446 v -0.51367 h 0.301446 v -0.64148 z"
         style="font-style:normal;font-variant:normal;font-weight:bold;font-stretch:normal;font-size:4.93888903px;font-family:'Roboto Condensed';-inkscape-font-specification:'Roboto Condensed, Bold';fill:#cccccc;stroke-width:0.26458335px"
         id="path4646" />
      <path
         d="m 85.877997,262.12283 v 0.64148 h 0.349677 v 0.51367 h -0.349677 v 1.29501 q 0,0.15434 0.041,0.21221 0.04341,0.0579 0.163986,0.0579 0.09887,0 0.161575,-0.0169 l -0.0048,0.53055 q -0.173633,0.0651 -0.376204,0.0651 -0.66077,0 -0.668004,-0.75723 v -1.38665 h -0.301446 v -0.51367 h 0.301446 v -0.64148 z"
         style="font-style:normal;font-variant:normal;font-weight:bold;font-stretch:normal;font-size:4.93888903px;font-family:'Roboto Condensed';-inkscape-font-specification:'Roboto Condensed, Bold';fill:#cccccc;stroke-width:0.26458335px"
         id="path4648" />
      <path
         d="m 88.632006,264.15096 q 0,0.61495 -0.212217,0.94292 -0.209807,0.32798 -0.627008,0.32798 -0.318327,0 -0.511252,-0.25804 v 1.21302 h -0.682473 v -3.61253 h 0.63183 l 0.02412,0.23875 q 0.195337,-0.28698 0.532956,-0.28698 0.417201,0 0.627007,0.30386 0.212218,0.30385 0.217041,0.93086 z m -0.680061,-0.17122 q 0,-0.37861 -0.0844,-0.53537 -0.08199,-0.15675 -0.279742,-0.15675 -0.209806,0 -0.306269,0.17605 v 1.22266 q 0.09164,0.16881 0.311092,0.16881 0.202572,0 0.279742,-0.17122 0.07958,-0.17122 0.07958,-0.53296 z"
         style="font-style:normal;font-variant:normal;font-weight:bold;font-stretch:normal;font-size:4.93888903px;font-family:'Roboto Condensed';-inkscape-font-specification:'Roboto Condensed, Bold';fill:#cccccc;stroke-width:0.26458335px"
         id="path4650" />
      <path
         d="m 90.204348,264.67427 q 0,-0.0868 -0.0844,-0.15916 -0.08199,-0.0748 -0.36897,-0.20016 -0.422024,-0.17122 -0.581187,-0.3545 -0.156752,-0.18328 -0.156752,-0.45579 0,-0.34244 0.24598,-0.5643 0.248391,-0.22428 0.655946,-0.22428 0.429259,0 0.687297,0.22186 0.258037,0.22187 0.258037,0.59566 h -0.682473 q 0,-0.31833 -0.265273,-0.31833 -0.10852,0 -0.178456,0.0675 -0.06994,0.0675 -0.06994,0.1881 0,0.0868 0.07717,0.15434 0.07717,0.0651 0.364147,0.1881 0.417201,0.15434 0.588422,0.34486 0.173633,0.1881 0.173633,0.48955 0,0.34967 -0.262861,0.56189 -0.262861,0.21222 -0.689708,0.21222 -0.286976,0 -0.506429,-0.11093 -0.219453,-0.11335 -0.344854,-0.31351 -0.12299,-0.20016 -0.12299,-0.43167 h 0.648711 q 0.0048,0.17846 0.08199,0.26769 0.07958,0.0892 0.258037,0.0892 0.274919,0 0.274919,-0.24839 z"
         style="font-style:normal;font-variant:normal;font-weight:bold;font-stretch:normal;font-size:4.93888903px;font-family:'Roboto Condensed';-inkscape-font-specification:'Roboto Condensed, Bold';fill:#cccccc;stroke-width:0.26458335px"
         id="path4652" />
      <path
         d="m 91.357077,265.02636 q 0,-0.16399 0.10852,-0.27009 0.110932,-0.10611 0.286977,-0.10611 0.171221,0 0.284565,0.10611 0.113343,0.10369 0.113343,0.27009 0,0.16881 -0.115755,0.27251 -0.113344,0.10128 -0.282153,0.10128 -0.171222,0 -0.284565,-0.10369 -0.110932,-0.1037 -0.110932,-0.2701 z m 0,-1.97266 q 0,-0.16399 0.10852,-0.2701 0.110932,-0.10611 0.286977,-0.10611 0.171221,0 0.284565,0.10611 0.113343,0.1037 0.113343,0.2701 0,0.16881 -0.115755,0.27251 -0.113344,0.10128 -0.282153,0.10128 -0.171222,0 -0.284565,-0.1037 -0.110932,-0.10369 -0.110932,-0.27009 z"
         style="font-style:normal;font-variant:normal;font-weight:bold;font-stretch:normal;font-size:4.93888903px;font-family:'Roboto Condensed';-inkscape-font-specification:'Roboto Condensed, Bold';fill:#cccccc;stroke-width:0.26458335px"
         id="path4654" />
      <path
         d="m 92.905303,265.67507 h -0.499195 l 1.053855,-3.81268 h 0.499194 z"
         style="font-style:normal;font-variant:normal;font-weight:bold;font-stretch:normal;font-size:4.93888903px;font-family:'Roboto Condensed';-inkscape-font-specification:'Roboto Condensed, Bold';fill:#cccccc;stroke-width:0.26458335px"
         id="path4656" />
      <path
         d="m 93.9471,265.67507 h -0.499194 l 1.053855,-3.81268 h 0.499194 z"
         style="font-style:normal;font-variant:normal;font-weight:bold;font-stretch:normal;font-size:4.93888903px;font-family:'Roboto Condensed';-inkscape-font-specification:'Roboto Condensed, Bold';fill:#cccccc;stroke-width:0.26458335px"
         id="path4658" />
      <path
         d="m 96.204326,264.368 -0.183279,0.20499 v 0.80064 h -0.682473 v -3.70417 h 0.682473 v 2.0016 l 0.08441,-0.1254 0.472667,-0.78135 h 0.812698 l -0.757232,1.07556 0.829579,1.53376 h -0.781348 z"
         style="font-style:normal;font-variant:normal;font-weight:bold;font-stretch:normal;font-size:4.93888903px;font-family:'Roboto Condensed';-inkscape-font-specification:'Roboto Condensed, Bold';fill:#cccccc;stroke-width:0.26458335px"
         id="path4660" />
      <path
         d="m 97.622328,263.98456 q 0,-0.59324 0.279741,-0.93086 0.279742,-0.33762 0.774113,-0.33762 0.499195,0 0.778936,0.33762 0.279742,0.33762 0.279742,0.93569 v 0.1664 q 0,0.59565 -0.27733,0.93086 -0.27733,0.33521 -0.776525,0.33521 -0.501605,0 -0.781347,-0.33521 -0.27733,-0.33762 -0.27733,-0.93569 z m 0.684885,0.17123 q 0,0.69935 0.373792,0.69935 0.344855,0 0.371382,-0.5836 l 0.0024,-0.28698 q 0,-0.35691 -0.09887,-0.52813 -0.09887,-0.17363 -0.279742,-0.17363 -0.173632,0 -0.272507,0.17363 -0.09646,0.17122 -0.09646,0.52813 z"
         style="font-style:normal;font-variant:normal;font-weight:bold;font-stretch:normal;font-size:4.93888903px;font-family:'Roboto Condensed';-inkscape-font-specification:'Roboto Condensed, Bold';fill:#cccccc;stroke-width:0.26458335px"
         id="path4662" />
      <path
         d="m 100.7863,262.76431 0.0193,0.25804 q 0.23151,-0.30627 0.6053,-0.30627 0.67283,0 0.69212,0.94292 v 1.71463 h -0.68489 v -1.66398 q 0,-0.22187 -0.0675,-0.32074 -0.0651,-0.10129 -0.23151,-0.10129 -0.18569,0 -0.28939,0.19052 v 1.89549 h -0.68488 v -2.60932 z"
         style="font-style:normal;font-variant:normal;font-weight:bold;font-stretch:normal;font-size:4.93888903px;font-family:'Roboto Condensed';-inkscape-font-specification:'Roboto Condensed, Bold';fill:#cccccc;stroke-width:0.26458335px"
         id="path4664" />
      <path
         d="m 103.45832,264.368 -0.18328,0.20499 v 0.80064 h -0.68247 v -3.70417 h 0.68247 v 2.0016 l 0.0844,-0.1254 0.47266,-0.78135 h 0.8127 l -0.75723,1.07556 0.82958,1.53376 h -0.78135 z"
         style="font-style:normal;font-variant:normal;font-weight:bold;font-stretch:normal;font-size:4.93888903px;font-family:'Roboto Condensed';-inkscape-font-specification:'Roboto Condensed, Bold';fill:#cccccc;stroke-width:0.26458335px"
         id="path4666" />
      <path
         d="m 104.87632,263.98456 q 0,-0.59324 0.27974,-0.93086 0.27975,-0.33762 0.77412,-0.33762 0.49919,0 0.77893,0.33762 0.27974,0.33762 0.27974,0.93569 v 0.1664 q 0,0.59565 -0.27733,0.93086 -0.27733,0.33521 -0.77652,0.33521 -0.50161,0 -0.78135,-0.33521 -0.27733,-0.33762 -0.27733,-0.93569 z m 0.68489,0.17123 q 0,0.69935 0.37379,0.69935 0.34485,0 0.37138,-0.5836 l 0.002,-0.28698 q 0,-0.35691 -0.0989,-0.52813 -0.0989,-0.17363 -0.27974,-0.17363 -0.17364,0 -0.27251,0.17363 -0.0965,0.17122 -0.0965,0.52813 z"
         style="font-style:normal;font-variant:normal;font-weight:bold;font-stretch:normal;font-size:4.93888903px;font-family:'Roboto Condensed';-inkscape-font-specification:'Roboto Condensed, Bold';fill:#cccccc;stroke-width:0.26458335px"
         id="path4668" />
      <path
         d="m 108.70348,263.42267 -0.22669,-0.0193 q -0.27974,0 -0.37862,0.24598 v 1.72427 h -0.68488 v -2.60932 h 0.64389 l 0.0193,0.28215 q 0.16157,-0.33038 0.44614,-0.33038 0.11575,0 0.1881,0.0314 z"
         style="font-style:normal;font-variant:normal;font-weight:bold;font-stretch:normal;font-size:4.93888903px;font-family:'Roboto Condensed';-inkscape-font-specification:'Roboto Condensed, Bold';fill:#cccccc;stroke-width:0.26458335px"
         id="path4670" />
      <path
         d="m 108.69624,265.02636 q 0,-0.16399 0.10852,-0.27009 0.11094,-0.10611 0.28698,-0.10611 0.17122,0 0.28456,0.10611 0.11335,0.10369 0.11335,0.27009 0,0.16881 -0.11576,0.27251 -0.11334,0.10128 -0.28215,0.10128 -0.17122,0 -0.28457,-0.10369 -0.11093,-0.1037 -0.11093,-0.2701 z"
         style="font-style:normal;font-variant:normal;font-weight:bold;font-stretch:normal;font-size:4.93888903px;font-family:'Roboto Condensed';-inkscape-font-specification:'Roboto Condensed, Bold';fill:#cccccc;stroke-width:0.26458335px"
         id="path4672" />
      <path
         d="m 109.99608,263.98939 q 0,-0.64148 0.23151,-0.95739 0.23151,-0.31592 0.64871,-0.31592 0.3545,0 0.54743,0.27974 l 0.0265,-0.23151 h 0.61495 v 2.60932 q 0,0.49919 -0.27974,0.76205 -0.27974,0.26527 -0.80305,0.26527 -0.21463,0 -0.45096,-0.0868 -0.23634,-0.0844 -0.35209,-0.21704 l 0.2291,-0.47267 q 0.0965,0.10129 0.2508,0.16399 0.15434,0.0651 0.2918,0.0651 0.2291,0 0.32797,-0.11093 0.10129,-0.10852 0.1037,-0.35209 v -0.22428 q -0.19534,0.25563 -0.50884,0.25563 -0.4172,0 -0.6463,-0.32315 -0.22669,-0.32556 -0.23151,-0.9164 z m 0.68247,0.17122 q 0,0.36173 0.094,0.52813 0.0941,0.16399 0.29904,0.16399 0.2098,0 0.31109,-0.15193 v -1.24678 q -0.10611,-0.1664 -0.30627,-0.1664 -0.20257,0 -0.30145,0.1664 -0.0965,0.1664 -0.0965,0.53537 z"
         style="font-style:normal;font-variant:normal;font-weight:bold;font-stretch:normal;font-size:4.93888903px;font-family:'Roboto Condensed';-inkscape-font-specification:'Roboto Condensed, Bold';fill:#cccccc;stroke-width:0.26458335px"
         id="path4674" />
      <path
         d="m 113.28304,265.37363 h -0.68488 v -2.60932 h 0.68488 z m -0.71623,-3.28456 q 0,-0.15916 0.10128,-0.26045 0.10129,-0.10128 0.2701,-0.10128 0.16881,0 0.27009,0.10128 0.10129,0.10129 0.10129,0.26045 0,0.15675 -0.10129,0.26045 -0.0989,0.1037 -0.27009,0.1037 -0.17122,0 -0.27251,-0.1037 -0.0989,-0.1037 -0.0989,-0.26045 z"
         style="font-style:normal;font-variant:normal;font-weight:bold;font-stretch:normal;font-size:4.93888903px;font-family:'Roboto Condensed';-inkscape-font-specification:'Roboto Condensed, Bold';fill:#cccccc;stroke-width:0.26458335px"
         id="path4676" />
      <path
         d="m 114.60458,262.12283 v 0.64148 h 0.34968 v 0.51367 h -0.34968 v 1.29501 q 0,0.15434 0.041,0.21221 0.0434,0.0579 0.16399,0.0579 0.0989,0 0.16157,-0.0169 l -0.005,0.53055 q -0.17363,0.0651 -0.37621,0.0651 -0.66077,0 -0.668,-0.75723 v -1.38665 h -0.30145 v -0.51367 h 0.30145 v -0.64148 z"
         style="font-style:normal;font-variant:normal;font-weight:bold;font-stretch:normal;font-size:4.93888903px;font-family:'Roboto Condensed';-inkscape-font-specification:'Roboto Condensed, Bold';fill:#cccccc;stroke-width:0.26458335px"
         id="path4678" />
      <path
         d="m 115.99123,262.99341 q 0.22187,-0.27733 0.54502,-0.27733 0.35691,0 0.5426,0.2508 0.18569,0.25081 0.1881,0.74759 v 1.65916 h -0.68488 v -1.65193 q 0,-0.2291 -0.0724,-0.33038 -0.0699,-0.1037 -0.2291,-0.1037 -0.18569,0 -0.28939,0.17122 v 1.91479 h -0.68247 v -3.70417 h 0.68247 z"
         style="font-style:normal;font-variant:normal;font-weight:bold;font-stretch:normal;font-size:4.93888903px;font-family:'Roboto Condensed';-inkscape-font-specification:'Roboto Condensed, Bold';fill:#cccccc;stroke-width:0.26458335px"
         id="path4680" />
      <path
         d="m 119.03946,265.13488 q -0.21222,0.28698 -0.56913,0.28698 -0.35933,0 -0.54502,-0.24598 -0.18569,-0.24839 -0.18569,-0.72106 v -1.69051 h 0.68247 v 1.70739 q 0.005,0.38103 0.25322,0.38103 0.23392,0 0.33762,-0.20257 v -1.88585 h 0.68729 v 2.60932 h -0.64147 z"
         style="font-style:normal;font-variant:normal;font-weight:bold;font-stretch:normal;font-size:4.93888903px;font-family:'Roboto Condensed';-inkscape-font-specification:'Roboto Condensed, Bold';fill:#cccccc;stroke-width:0.26458335px"
         id="path4682" />
      <path
         d="m 122.22272,264.15337 q 0,0.63425 -0.20257,0.95257 -0.20257,0.31592 -0.63665,0.31592 -0.34003,0 -0.54502,-0.30627 l -0.0217,0.25804 h -0.62942 v -3.70417 h 0.68247 v 1.30707 q 0.19293,-0.26045 0.50884,-0.26045 0.43409,0 0.63666,0.31592 0.20257,0.3135 0.20739,0.92121 z m -0.68247,-0.17122 q 0,-0.41238 -0.0796,-0.55225 -0.0796,-0.14228 -0.27733,-0.14228 -0.21463,0 -0.31351,0.19534 v 1.1889 q 0.0916,0.18328 0.31833,0.18328 0.19534,0 0.2701,-0.12781 0.0772,-0.12782 0.082,-0.49679 z"
         style="font-style:normal;font-variant:normal;font-weight:bold;font-stretch:normal;font-size:4.93888903px;font-family:'Roboto Condensed';-inkscape-font-specification:'Roboto Condensed, Bold';fill:#cccccc;stroke-width:0.26458335px"
         id="path4684" />
      <path
         d="m 122.69298,265.02636 q 0,-0.16399 0.10852,-0.27009 0.11093,-0.10611 0.28697,-0.10611 0.17122,0 0.28457,0.10611 0.11334,0.10369 0.11334,0.27009 0,0.16881 -0.11575,0.27251 -0.11335,0.10128 -0.28216,0.10128 -0.17122,0 -0.28456,-0.10369 -0.11093,-0.1037 -0.11093,-0.2701 z"
         style="font-style:normal;font-variant:normal;font-weight:bold;font-stretch:normal;font-size:4.93888903px;font-family:'Roboto Condensed';-inkscape-font-specification:'Roboto Condensed, Bold';fill:#cccccc;stroke-width:0.26458335px"
         id="path4686" />
      <path
         d="m 124.79104,265.37363 h -0.68489 v -2.60932 h 0.68489 z m -0.71624,-3.28456 q 0,-0.15916 0.10129,-0.26045 0.10129,-0.10128 0.27009,-0.10128 0.16881,0 0.2701,0.10128 0.10129,0.10129 0.10129,0.26045 0,0.15675 -0.10129,0.26045 -0.0989,0.1037 -0.2701,0.1037 -0.17122,0 -0.2725,-0.1037 -0.0989,-0.1037 -0.0989,-0.26045 z"
         style="font-style:normal;font-variant:normal;font-weight:bold;font-stretch:normal;font-size:4.93888903px;font-family:'Roboto Condensed';-inkscape-font-specification:'Roboto Condensed, Bold';fill:#cccccc;stroke-width:0.26458335px"
         id="path4688" />
      <path
         d="m 125.23959,263.98456 q 0,-0.59324 0.27974,-0.93086 0.27974,-0.33762 0.77412,-0.33762 0.49919,0 0.77893,0.33762 0.27974,0.33762 0.27974,0.93569 v 0.1664 q 0,0.59565 -0.27733,0.93086 -0.27733,0.33521 -0.77652,0.33521 -0.50161,0 -0.78135,-0.33521 -0.27733,-0.33762 -0.27733,-0.93569 z m 0.68489,0.17123 q 0,0.69935 0.37379,0.69935 0.34485,0 0.37138,-0.5836 l 0.002,-0.28698 q 0,-0.35691 -0.0989,-0.52813 -0.0989,-0.17363 -0.27974,-0.17363 -0.17364,0 -0.27251,0.17363 -0.0965,0.17122 -0.0965,0.52813 z"
         style="font-style:normal;font-variant:normal;font-weight:bold;font-stretch:normal;font-size:4.93888903px;font-family:'Roboto Condensed';-inkscape-font-specification:'Roboto Condensed, Bold';fill:#cccccc;stroke-width:0.26458335px"
         id="path4690" />
    </g>
  </g>
</svg>
