<?xml version="1.0" encoding="UTF-8" standalone="no"?>
<!-- Created with Inkscape (http://www.inkscape.org/) -->

<svg
   xmlns:dc="http://purl.org/dc/elements/1.1/"
   xmlns:cc="http://creativecommons.org/ns#"
   xmlns:rdf="http://www.w3.org/1999/02/22-rdf-syntax-ns#"
   xmlns:svg="http://www.w3.org/2000/svg"
   xmlns="http://www.w3.org/2000/svg"
   xmlns:xlink="http://www.w3.org/1999/xlink"
   xmlns:sodipodi="http://sodipodi.sourceforge.net/DTD/sodipodi-0.dtd"
   xmlns:inkscape="http://www.inkscape.org/namespaces/inkscape"
   width="32"
   height="32"
   id="svg2"
   version="1.1"
   inkscape:version="0.92.1 r15371"
   sodipodi:docname="cpufreq.svg"
   inkscape:export-filename="/home/kapa/projects/cpufreq@konkor/data/icons/hicolor/32x32/apps/cpufreq.png"
   inkscape:export-xdpi="96"
   inkscape:export-ydpi="96">
  <defs
     id="defs4">
    <linearGradient
       id="linearGradient4612"
       inkscape:collect="always">
      <stop
         id="stop4606"
         offset="0"
         style="stop-color:#0bbab3;stop-opacity:1" />
      <stop
         style="stop-color:#fa6638;stop-opacity:1"
         offset="0.58421379"
         id="stop4608" />
      <stop
         id="stop4610"
         offset="1"
         style="stop-color:#fa4738;stop-opacity:1" />
    </linearGradient>
    <linearGradient
       inkscape:collect="always"
       xlink:href="#linearGradient4612"
       id="linearGradient881"
       gradientUnits="userSpaceOnUse"
       x1="8.2522602"
       y1="293.73578"
       x2="8.439723"
       y2="285.23486"
       gradientTransform="matrix(3.1125533,0,0,3.1125533,-10.352952,137.28678)" />
    <linearGradient
       inkscape:collect="always"
       xlink:href="#linearGradient4612"
       id="linearGradient883"
       gradientUnits="userSpaceOnUse"
       x1="8.2522602"
       y1="293.73578"
       x2="8.439723"
       y2="285.23486"
       gradientTransform="matrix(3.1125533,0,0,3.1125533,-10.352952,137.62018)" />
    <linearGradient
       inkscape:collect="always"
       xlink:href="#linearGradient4612"
       id="linearGradient885"
       gradientUnits="userSpaceOnUse"
       x1="8.2522602"
       y1="293.73578"
       x2="8.439723"
       y2="285.23486"
       gradientTransform="matrix(3.1125533,0,0,3.1125533,-10.352952,137.95348)" />
    <linearGradient
       inkscape:collect="always"
       xlink:href="#linearGradient4612"
       id="linearGradient887"
       gradientUnits="userSpaceOnUse"
       x1="8.2522602"
       y1="293.73578"
       x2="8.439723"
       y2="285.23486"
       gradientTransform="matrix(3.1125533,0,0,3.1125533,-10.352952,138.28688)" />
    <linearGradient
       inkscape:collect="always"
       xlink:href="#linearGradient4612"
       id="linearGradient889"
       gradientUnits="userSpaceOnUse"
       x1="8.2522602"
       y1="293.73578"
       x2="8.439723"
       y2="285.23486"
       gradientTransform="matrix(3.1125533,0,0,3.1125533,-10.352952,138.62018)" />
    <linearGradient
       inkscape:collect="always"
       xlink:href="#linearGradient4612"
       id="linearGradient891"
       gradientUnits="userSpaceOnUse"
       x1="8.2522602"
       y1="293.73578"
       x2="8.439723"
       y2="285.23486"
       gradientTransform="matrix(3.1125533,0,0,3.1125533,-10.352952,138.95348)" />
    <linearGradient
       inkscape:collect="always"
       xlink:href="#linearGradient4612"
       id="linearGradient893"
       gradientUnits="userSpaceOnUse"
       x1="8.2522602"
       y1="293.73578"
       x2="8.439723"
       y2="285.23486"
       gradientTransform="matrix(3.1125533,0,0,3.1125533,-10.352952,139.28688)" />
  </defs>
  <sodipodi:namedview
     id="base"
     pagecolor="#ffffff"
     bordercolor="#666666"
     borderopacity="1.0"
     inkscape:pageopacity="0.0"
     inkscape:pageshadow="2"
     inkscape:zoom="15.839192"
     inkscape:cx="13.312604"
     inkscape:cy="12.839725"
     inkscape:document-units="px"
     inkscape:current-layer="layer1"
     showgrid="false"
     inkscape:window-width="1444"
     inkscape:window-height="823"
     inkscape:window-x="249"
     inkscape:window-y="179"
     inkscape:window-maximized="0" />
  <metadata
     id="metadata7">
    <rdf:RDF>
      <cc:Work
         rdf:about="">
        <dc:format>image/svg+xml</dc:format>
        <dc:type
           rdf:resource="http://purl.org/dc/dcmitype/StillImage" />
        <dc:title></dc:title>
      </cc:Work>
    </rdf:RDF>
  </metadata>
  <g
     inkscape:label="Layer 1"
     inkscape:groupmode="layer"
     id="layer1"
     transform="translate(0,-1020.3622)">
    <path
       inkscape:connector-curvature="0"
       style="opacity:1;fill:url(#linearGradient881);fill-opacity:1;fill-rule:nonzero;stroke:none;stroke-width:1.64705956;stroke-linecap:round;stroke-linejoin:round;stroke-miterlimit:4;stroke-dasharray:none;stroke-dashoffset:0;stroke-opacity:1"
       d="M 4.4705831,1021.3621 H 27.529414 c 0.456238,0 0.823532,0.3673 0.823532,0.8235 v 1.6471 c 0,0.4562 -0.367294,0.8235 -0.823532,0.8235 H 4.4705831 c -0.4562353,0 -0.8235296,-0.3673 -0.8235296,-0.8235 v -1.6471 c 0,-0.4562 0.3672943,-0.8235 0.8235296,-0.8235 z"
       id="rect4502"
       inkscape:export-xdpi="96"
       inkscape:export-ydpi="96" />
    <path
       inkscape:connector-curvature="0"
       style="opacity:1;fill:url(#linearGradient883);fill-opacity:1;fill-rule:nonzero;stroke:none;stroke-width:1.64705956;stroke-linecap:round;stroke-linejoin:round;stroke-miterlimit:4;stroke-dasharray:none;stroke-dashoffset:0;stroke-opacity:1"
       d="M 4.4705831,1025.8131 H 27.529414 c 0.456238,0 0.823532,0.3673 0.823532,0.8235 v 1.6471 c 0,0.4563 -0.367294,0.8235 -0.823532,0.8235 H 4.4705831 c -0.4562353,0 -0.8235296,-0.3672 -0.8235296,-0.8235 v -1.6471 c 0,-0.4562 0.3672943,-0.8235 0.8235296,-0.8235 z"
       id="rect4504"
       inkscape:export-xdpi="96"
       inkscape:export-ydpi="96" />
    <path
       inkscape:connector-curvature="0"
       style="opacity:1;fill:url(#linearGradient885);fill-opacity:1;fill-rule:nonzero;stroke:none;stroke-width:1.64705956;stroke-linecap:round;stroke-linejoin:round;stroke-miterlimit:4;stroke-dasharray:none;stroke-dashoffset:0;stroke-opacity:1"
       d="M 4.4705831,1030.2641 H 27.529414 c 0.456238,0 0.823532,0.3673 0.823532,0.8236 v 1.647 c 0,0.4562 -0.367294,0.8236 -0.823532,0.8236 H 4.4705831 c -0.4562353,0 -0.8235296,-0.3674 -0.8235296,-0.8236 v -1.647 c 0,-0.4563 0.3672943,-0.8236 0.8235296,-0.8236 z"
       id="rect4506"
       inkscape:export-xdpi="96"
       inkscape:export-ydpi="96" />
    <path
       inkscape:connector-curvature="0"
       style="opacity:1;fill:url(#linearGradient887);fill-opacity:1;fill-rule:nonzero;stroke:none;stroke-width:1.64705956;stroke-linecap:round;stroke-linejoin:round;stroke-miterlimit:4;stroke-dasharray:none;stroke-dashoffset:0;stroke-opacity:1"
       d="M 4.4705831,1034.7151 H 27.529414 c 0.456238,0 0.823532,0.3673 0.823532,0.8236 v 1.647 c 0,0.4563 -0.367294,0.8236 -0.823532,0.8236 H 4.4705831 c -0.4562353,0 -0.8235296,-0.3673 -0.8235296,-0.8236 v -1.647 c 0,-0.4563 0.3672943,-0.8236 0.8235296,-0.8236 z"
       id="rect4508"
       inkscape:export-xdpi="96"
       inkscape:export-ydpi="96" />
    <path
       inkscape:connector-curvature="0"
       style="opacity:1;fill:url(#linearGradient889);fill-opacity:1;fill-rule:nonzero;stroke:none;stroke-width:1.64705956;stroke-linecap:round;stroke-linejoin:round;stroke-miterlimit:4;stroke-dasharray:none;stroke-dashoffset:0;stroke-opacity:1"
       d="M 4.4705831,1039.1661 H 27.529414 c 0.456238,0 0.823532,0.3673 0.823532,0.8235 v 1.6471 c 0,0.4562 -0.367294,0.8235 -0.823532,0.8235 H 4.4705831 c -0.4562353,0 -0.8235296,-0.3673 -0.8235296,-0.8235 v -1.6471 c 0,-0.4562 0.3672943,-0.8235 0.8235296,-0.8235 z"
       id="rect4510"
       inkscape:export-xdpi="96"
       inkscape:export-ydpi="96" />
    <path
       inkscape:connector-curvature="0"
       style="opacity:1;fill:url(#linearGradient891);fill-opacity:1;fill-rule:nonzero;stroke:none;stroke-width:1.64705956;stroke-linecap:round;stroke-linejoin:round;stroke-miterlimit:4;stroke-dasharray:none;stroke-dashoffset:0;stroke-opacity:1"
       d="M 4.4705831,1043.6171 H 27.529414 c 0.456238,0 0.823532,0.3673 0.823532,0.8235 v 1.6471 c 0,0.4562 -0.367294,0.8235 -0.823532,0.8235 H 4.4705831 c -0.4562353,0 -0.8235296,-0.3673 -0.8235296,-0.8235 v -1.6471 c 0,-0.4562 0.3672943,-0.8235 0.8235296,-0.8235 z"
       id="rect4512"
       inkscape:export-xdpi="96"
       inkscape:export-ydpi="96" />
    <path
       inkscape:connector-curvature="0"
       style="opacity:1;fill:url(#linearGradient893);fill-opacity:1;fill-rule:nonzero;stroke:none;stroke-width:1.64705956;stroke-linecap:round;stroke-linejoin:round;stroke-miterlimit:4;stroke-dasharray:none;stroke-dashoffset:0;stroke-opacity:1"
       d="M 4.4705831,1048.0681 H 27.529414 c 0.456238,0 0.823532,0.3673 0.823532,0.8235 v 1.6471 c 0,0.4562 -0.367294,0.8235 -0.823532,0.8235 H 4.4705831 c -0.4562353,0 -0.8235296,-0.3673 -0.8235296,-0.8235 v -1.6471 c 0,-0.4562 0.3672943,-0.8235 0.8235296,-0.8235 z"
       id="rect4514"
       inkscape:export-xdpi="96"
       inkscape:export-ydpi="96" />
  </g>
</svg>
