<?xml version="1.0" encoding="UTF-8" standalone="no"?>
<!-- Created with Inkscape (http://www.inkscape.org/) -->

<svg
   xmlns:dc="http://purl.org/dc/elements/1.1/"
   xmlns:cc="http://creativecommons.org/ns#"
   xmlns:rdf="http://www.w3.org/1999/02/22-rdf-syntax-ns#"
   xmlns:svg="http://www.w3.org/2000/svg"
   xmlns="http://www.w3.org/2000/svg"
   xmlns:xlink="http://www.w3.org/1999/xlink"
   xmlns:sodipodi="http://sodipodi.sourceforge.net/DTD/sodipodi-0.dtd"
   xmlns:inkscape="http://www.inkscape.org/namespaces/inkscape"
   width="64"
   height="64"
   viewBox="0 0 16.933333 16.933334"
   version="1.1"
   id="svg8"
   inkscape:version="0.92.1 r15371"
   sodipodi:docname="cpufreq.svg">
  <defs
     id="defs2">
    <linearGradient
       id="linearGradient4612"
       inkscape:collect="always">
      <stop
         id="stop4606"
         offset="0"
         style="stop-color:#0bbab3;stop-opacity:1" />
      <stop
         style="stop-color:#fa6638;stop-opacity:1"
         offset="0.58421379"
         id="stop4608" />
      <stop
         id="stop4610"
         offset="1"
         style="stop-color:#fa4738;stop-opacity:1" />
    </linearGradient>
    <linearGradient
       inkscape:collect="always"
       xlink:href="#linearGradient4612"
       id="linearGradient4604"
       x1="8.2522602"
       y1="293.73578"
       x2="8.439723"
       y2="285.23486"
       gradientUnits="userSpaceOnUse" />
    <linearGradient
       inkscape:collect="always"
       xlink:href="#linearGradient4612"
       id="linearGradient4614"
       gradientUnits="userSpaceOnUse"
       x1="8.2522602"
       y1="293.73578"
       x2="8.439723"
       y2="285.23486" />
    <linearGradient
       inkscape:collect="always"
       xlink:href="#linearGradient4612"
       id="linearGradient4616"
       gradientUnits="userSpaceOnUse"
       x1="8.2522602"
       y1="293.73578"
       x2="8.439723"
       y2="285.23486" />
    <linearGradient
       inkscape:collect="always"
       xlink:href="#linearGradient4612"
       id="linearGradient4618"
       gradientUnits="userSpaceOnUse"
       x1="8.2522602"
       y1="293.73578"
       x2="8.439723"
       y2="285.23486" />
    <linearGradient
       inkscape:collect="always"
       xlink:href="#linearGradient4612"
       id="linearGradient4620"
       gradientUnits="userSpaceOnUse"
       x1="8.2522602"
       y1="293.73578"
       x2="8.439723"
       y2="285.23486" />
    <linearGradient
       inkscape:collect="always"
       xlink:href="#linearGradient4612"
       id="linearGradient4622"
       gradientUnits="userSpaceOnUse"
       x1="8.2522602"
       y1="293.73578"
       x2="8.439723"
       y2="285.23486" />
    <linearGradient
       inkscape:collect="always"
       xlink:href="#linearGradient4612"
       id="linearGradient4624"
       gradientUnits="userSpaceOnUse"
       x1="8.2522602"
       y1="293.73578"
       x2="8.439723"
       y2="285.23486" />
    <linearGradient
       inkscape:collect="always"
       xlink:href="#linearGradient4612"
       id="linearGradient4626"
       gradientUnits="userSpaceOnUse"
       x1="8.2522602"
       y1="293.73578"
       x2="8.439723"
       y2="285.23486" />
  </defs>
  <sodipodi:namedview
     id="base"
     pagecolor="#ffffff"
     bordercolor="#666666"
     borderopacity="1.0"
     inkscape:pageopacity="0.0"
     inkscape:pageshadow="2"
     inkscape:zoom="4.9331747"
     inkscape:cx="75.791538"
     inkscape:cy="5.432594"
     inkscape:document-units="px"
     inkscape:current-layer="layer1"
     showgrid="false"
     units="px"
     inkscape:showpageshadow="false"
     inkscape:window-width="1920"
     inkscape:window-height="1173"
     inkscape:window-x="0"
     inkscape:window-y="27"
     inkscape:window-maximized="1" />
  <metadata
     id="metadata5">
    <rdf:RDF>
      <cc:Work
         rdf:about="">
        <dc:format>image/svg+xml</dc:format>
        <dc:type
           rdf:resource="http://purl.org/dc/dcmitype/StillImage" />
        <dc:title></dc:title>
      </cc:Work>
    </rdf:RDF>
  </metadata>
  <g
     inkscape:label="Layer 1"
     inkscape:groupmode="layer"
     id="layer1"
     transform="translate(0,-280.06665)">
    <g
       id="g4596"
       style="fill:url(#linearGradient4604);fill-opacity:1"
       transform="matrix(1.6913908,0,0,1.6913908,-5.8537757,-199.48928)">
      <path
         id="rect4502"
         d="m 4.7625,284.0354 h 7.408333 c 0.14658,0 0.264584,0.118 0.264584,0.26458 v 0.52917 c 0,0.14658 -0.118004,0.26458 -0.264584,0.26458 H 4.7625 c -0.1465791,0 -0.2645833,-0.118 -0.2645833,-0.26458 v -0.52917 c 0,-0.14658 0.1180042,-0.26458 0.2645833,-0.26458 z"
         style="opacity:1;fill:url(#linearGradient4614);fill-opacity:1;fill-rule:nonzero;stroke:none;stroke-width:0.5291667;stroke-linecap:round;stroke-linejoin:round;stroke-miterlimit:4;stroke-dasharray:none;stroke-dashoffset:0;stroke-opacity:1"
         inkscape:connector-curvature="0" />
      <path
         id="rect4504"
         d="m 4.7625,285.35831 h 7.408333 c 0.14658,0 0.264584,0.118 0.264584,0.26458 v 0.52917 c 0,0.14658 -0.118004,0.26458 -0.264584,0.26458 H 4.7625 c -0.1465791,0 -0.2645833,-0.118 -0.2645833,-0.26458 v -0.52917 c 0,-0.14658 0.1180042,-0.26458 0.2645833,-0.26458 z"
         style="opacity:1;fill:url(#linearGradient4616);fill-opacity:1;fill-rule:nonzero;stroke:none;stroke-width:0.5291667;stroke-linecap:round;stroke-linejoin:round;stroke-miterlimit:4;stroke-dasharray:none;stroke-dashoffset:0;stroke-opacity:1"
         inkscape:connector-curvature="0" />
      <path
         id="rect4506"
         d="m 4.7625,286.68124 h 7.408333 c 0.14658,0 0.264584,0.11801 0.264584,0.26459 v 0.52916 c 0,0.14658 -0.118004,0.26459 -0.264584,0.26459 H 4.7625 c -0.1465791,0 -0.2645833,-0.11801 -0.2645833,-0.26459 v -0.52916 c 0,-0.14658 0.1180042,-0.26459 0.2645833,-0.26459 z"
         style="opacity:1;fill:url(#linearGradient4618);fill-opacity:1;fill-rule:nonzero;stroke:none;stroke-width:0.5291667;stroke-linecap:round;stroke-linejoin:round;stroke-miterlimit:4;stroke-dasharray:none;stroke-dashoffset:0;stroke-opacity:1"
         inkscape:connector-curvature="0" />
      <path
         id="rect4508"
         d="m 4.7625,288.00415 h 7.408333 c 0.14658,0 0.264584,0.118 0.264584,0.26458 v 0.52917 c 0,0.14658 -0.118004,0.26458 -0.264584,0.26458 H 4.7625 c -0.1465791,0 -0.2645833,-0.118 -0.2645833,-0.26458 v -0.52917 c 0,-0.14658 0.1180042,-0.26458 0.2645833,-0.26458 z"
         style="opacity:1;fill:url(#linearGradient4620);fill-opacity:1;fill-rule:nonzero;stroke:none;stroke-width:0.5291667;stroke-linecap:round;stroke-linejoin:round;stroke-miterlimit:4;stroke-dasharray:none;stroke-dashoffset:0;stroke-opacity:1"
         inkscape:connector-curvature="0" />
      <path
         id="rect4510"
         d="m 4.7625,289.32706 h 7.408333 c 0.14658,0 0.264584,0.118 0.264584,0.26458 v 0.52917 c 0,0.14658 -0.118004,0.26458 -0.264584,0.26458 H 4.7625 c -0.1465791,0 -0.2645833,-0.118 -0.2645833,-0.26458 v -0.52917 c 0,-0.14658 0.1180042,-0.26458 0.2645833,-0.26458 z"
         style="opacity:1;fill:url(#linearGradient4622);fill-opacity:1;fill-rule:nonzero;stroke:none;stroke-width:0.5291667;stroke-linecap:round;stroke-linejoin:round;stroke-miterlimit:4;stroke-dasharray:none;stroke-dashoffset:0;stroke-opacity:1"
         inkscape:connector-curvature="0" />
      <path
         id="rect4512"
         d="m 4.7625,290.64999 h 7.408333 c 0.14658,0 0.264584,0.11801 0.264584,0.26459 v 0.52916 c 0,0.14658 -0.118004,0.26459 -0.264584,0.26459 H 4.7625 c -0.1465791,0 -0.2645833,-0.11801 -0.2645833,-0.26459 v -0.52916 c 0,-0.14658 0.1180042,-0.26459 0.2645833,-0.26459 z"
         style="opacity:1;fill:url(#linearGradient4624);fill-opacity:1;fill-rule:nonzero;stroke:none;stroke-width:0.5291667;stroke-linecap:round;stroke-linejoin:round;stroke-miterlimit:4;stroke-dasharray:none;stroke-dashoffset:0;stroke-opacity:1"
         inkscape:connector-curvature="0" />
      <path
         id="rect4514"
         d="m 4.7625,291.9729 h 7.408333 c 0.14658,0 0.264584,0.118 0.264584,0.26458 v 0.52917 c 0,0.14658 -0.118004,0.26458 -0.264584,0.26458 H 4.7625 c -0.1465791,0 -0.2645833,-0.118 -0.2645833,-0.26458 v -0.52917 c 0,-0.14658 0.1180042,-0.26458 0.2645833,-0.26458 z"
         style="opacity:1;fill:url(#linearGradient4626);fill-opacity:1;fill-rule:nonzero;stroke:none;stroke-width:0.5291667;stroke-linecap:round;stroke-linejoin:round;stroke-miterlimit:4;stroke-dasharray:none;stroke-dashoffset:0;stroke-opacity:1"
         inkscape:connector-curvature="0" />
    </g>
  </g>
</svg>
