<svg xmlns:rdf="http://www.w3.org/1999/02/22-rdf-syntax-ns#" xmlns="http://www.w3.org/2000/svg" height="18" width="32" version="1.1" xmlns:cc="http://creativecommons.org/ns#" xmlns:dc="http://purl.org/dc/elements/1.1/" viewBox="0 0 8.4666664 4.7625001">
 <g transform="translate(0 -292)">
  <path d="m3.96 293c-0.508 0.178-0.884 0.695-0.991 1.32a0.355 0.355 0 0 0 -0.19 0c-0.011-0.364-0.0649-1.02-0.257-1.13-0.0322-0.0189-0.0757-0.0272-0.127-0.0267-0.316 0.002-0.938 0.32-1.14 0.432-0.231 0.131-0.995 0.61-0.998 0.876-0.00214 0.265 0.754 0.757 0.983 0.892s1.03 0.557 1.26 0.426c0.202-0.114 0.264-0.818 0.278-1.17a0.355 0.355 0 0 0 0.178 0.177c0.0871 0.664 0.472 1.22 1 1.4-0.408-0.227-0.698-0.759-0.77-1.38a0.355 0.355 0 0 0 0.238 -0.197 0.355 0.355 0 0 0 0.178 0.177c0.0871 0.664 0.472 1.22 1 1.4-0.408-0.227-0.698-0.759-0.77-1.38a0.355 0.355 0 0 0 0.238 -0.198 0.355 0.355 0 0 0 0.182 0.179c0.0927 0.61 0.475 1.12 0.997 1.29-0.403-0.209-0.691-0.697-0.767-1.27a0.355 0.355 0 0 0 0.235 -0.197 0.355 0.355 0 0 0 0.173 0.175c0.0485 0.466 0.237 0.825 0.72 1.1-0.271-0.279-0.447-0.673-0.493-1.08a0.355 0.355 0 0 0 0.238 -0.183 0.355 0.355 0 0 0 0.177 0.164c0.06 0.376 0.223 0.624 0.473 0.755-0.101-0.188-0.199-0.425-0.243-0.739a0.355 0.355 0 0 0 0.204 -0.147c0.184 0.27 0.733 0.625 0.922 0.736 0.229 0.135 1.03 0.557 1.26 0.426 0.231-0.131-0.771-1.03-0.768-1.3 0.00215-0.265 1.02-1.17 0.79-1.3-0.229-0.135-1.03 0.275-1.26 0.406-0.183 0.104-0.702 0.427-0.91 0.688a0.355 0.355 0 0 0 -0.188 -0.182c0.0655-0.276 0.162-0.552 0.263-0.742-0.231 0.0935-0.439 0.367-0.523 0.739a0.355 0.355 0 0 0 -0.19 0.169 0.355 0.355 0 0 0 -0.192 -0.169c0.0721-0.418 0.17-0.702 0.447-1-0.291 0.127-0.605 0.449-0.703 1.01a0.355 0.355 0 0 0 -0.19 0.182 0.355 0.355 0 0 0 -0.189 -0.182c0.111-0.508 0.315-1.03 0.725-1.21-0.5 0.163-0.872 0.634-0.986 1.21a0.355 0.355 0 0 0 -0.2 0 0.355 0.355 0 0 0 -0.19 0c0.109-0.552 0.314-1.13 0.73-1.32-0.508 0.178-0.884 0.695-0.991 1.32a0.355 0.355 0 0 0 -0.19 0 0.355 0.355 0 0 0 -0.2 0c0.109-0.552 0.314-1.13 0.73-1.32zm-2.11 0.943a0.346 0.346 0 0 1 0.346 0.346 0.346 0.346 0 0 1 -0.346 0.346 0.346 0.346 0 0 1 -0.346 -0.346 0.346 0.346 0 0 1 0.346 -0.346z" fill="#bebebe"/>
 </g>
</svg>
